<svg width="32" height="32" viewBox="0 0 32 32" fill="none" xmlns="http://www.w3.org/2000/svg">
<rect width="32" height="32" rx="16" fill="#D1D3D9"/>
<path d="M12.625 24C11.3403 24 10.2483 23.5503 9.349 22.651C8.44967 21.7517 8 20.6597 8 19.375C8 18.753 8.11933 18.1583 8.358 17.591C8.59667 17.023 8.93133 16.5233 9.362 16.092L16.092 9.362C16.5227 8.93067 17.022 8.596 17.59 8.358C18.1587 8.11933 18.754 8 19.376 8C20.6607 8 21.7527 8.44967 22.652 9.349C23.5513 10.2483 24.0007 11.3403 24 12.625C24 13.247 23.8807 13.842 23.642 14.41C23.404 14.9773 23.0697 15.4767 22.639 15.908L15.908 22.638C15.4773 23.0687 14.978 23.4033 14.41 23.642C13.842 23.8807 13.247 24 12.625 24ZM18.929 18.196L21.95 15.2C22.2833 14.8667 22.5417 14.475 22.725 14.025C22.9083 13.575 23 13.1083 23 12.625C23 11.625 22.6457 10.771 21.937 10.063C21.2283 9.355 20.3743 9.00067 19.375 9C18.8917 9 18.425 9.09167 17.975 9.275C17.525 9.45833 17.1333 9.71667 16.8 10.05L13.804 13.071L18.929 18.196ZM12.625 23C13.1083 23 13.575 22.9083 14.025 22.725C14.475 22.5417 14.8667 22.2833 15.2 21.95L18.196 18.929L13.071 13.804L10.05 16.8C9.71667 17.1333 9.45833 17.525 9.275 17.975C9.09167 18.425 9 18.8917 9 19.375C9 20.375 9.35433 21.2293 10.063 21.938C10.7717 22.6467 11.6257 23.0007 12.625 23Z" fill="black"/>
</svg>
