<svg width="77" height="77" viewBox="0 0 77 77" fill="none" xmlns="http://www.w3.org/2000/svg">
<path d="M8.40137 45.2317C10.5368 44.9437 10.6872 44.8029 12.8526 44.8093C21.9918 44.6301 30.907 47.2733 38.0046 52.2685C44.5966 56.9021 49.2206 61.2765 51.2014 68.3997" stroke="#A0A2A9" stroke-width="2.2" stroke-linecap="round" stroke-linejoin="round"/>
<path d="M64.001 64.6813C59.5242 68.7997 52.3626 68.7997 38.401 68.7997C24.0714 68.7997 16.9034 68.7997 12.4522 64.3485C8.00098 59.8973 8.00098 52.7325 8.00098 38.3997C8.00098 24.4381 8.00098 17.2765 12.1194 12.7997M18.801 8.69409C23.057 7.99969 30.689 7.99969 38.401 7.99969C52.7338 7.99969 59.8986 7.9997 64.3498 12.4509C68.801 16.9021 68.801 24.0701 68.801 38.3997C68.801 44.4253 68.801 53.1805 68.4714 57.0045C62.9476 54.1363 53.9004 47.8998 43.4 56.3999M8.40098 8.39969L68.401 68.3997" stroke="#A0A2A9" stroke-width="2.2" stroke-linecap="round" stroke-linejoin="round"/>
<path d="M47.5504 28.85L55.2504 21.15M51.9504 33.25L43.1504 24.45C42.1293 23.4289 41.5557 22.044 41.5557 20.6C41.5557 19.156 42.1293 17.7711 43.1504 16.75C44.1715 15.7289 45.5564 15.1553 47.0004 15.1553C48.4444 15.1553 49.8293 15.7289 50.8504 16.75L59.6504 25.55C60.6715 26.5711 61.2451 27.956 61.2451 29.4C61.2451 30.844 60.6715 32.2289 59.6504 33.25C58.6293 34.2711 57.2444 34.8447 55.8004 34.8447C54.3564 34.8447 52.9715 34.2711 51.9504 33.25Z" stroke="#A0A2A9" stroke-width="2" stroke-linecap="round" stroke-linejoin="round"/>
</svg>
