<svg width="26" height="26" viewBox="0 0 26 26" fill="none" xmlns="http://www.w3.org/2000/svg">
<path d="M23.3225 8.45942V8.46079V17.5391C23.3225 19.4114 22.7664 20.8457 21.8006 21.8114C20.8349 22.7772 19.4006 23.3333 17.5284 23.3333H8.46085C6.58863 23.3333 5.15448 22.7772 4.1888 21.8103C3.22304 20.8433 2.66669 19.4063 2.66669 17.5283V8.46079C2.66669 6.58856 3.22282 5.15426 4.18857 4.18851C5.15432 3.22276 6.58862 2.66663 8.46085 2.66663H17.5392C19.4115 2.66663 20.8456 3.2228 21.8099 4.18829C22.7741 5.15367 23.3277 6.58751 23.3225 8.45942ZM18.5319 10.8618L18.532 10.8619L18.5378 10.8558C19.0361 10.3404 19.0446 9.51908 18.5319 9.00641C18.0225 8.49698 17.1859 8.49698 16.6765 9.00641L11.4617 14.2212L9.32357 12.0831C8.81415 11.5736 7.97756 11.5736 7.46813 12.0831C6.9587 12.5925 6.9587 13.4291 7.46813 13.9385L10.534 17.0043C10.7783 17.2487 11.1109 17.3891 11.4617 17.3891C11.8125 17.3891 12.145 17.2487 12.3894 17.0043L18.5319 10.8618Z" fill="#F4F4F4" stroke="#F4F4F4"/>
<rect x="7" y="9" width="14" height="10" fill="#F4F4F4"/>
</svg>
