<svg width="18" height="18" viewBox="0 0 18 18" fill="none" xmlns="http://www.w3.org/2000/svg">
<g id="Outline/trash">
<path id="Vector" fill-rule="evenodd" clip-rule="evenodd" d="M6.34422 3.14081C6.39431 2.94048 6.5743 2.79995 6.78079 2.79995H11.2192C11.4257 2.79995 11.6057 2.94049 11.6558 3.14081L12.0456 4.69995H5.95444L6.34422 3.14081ZM4.82059 4.69995L5.27707 2.87402C5.44957 2.18401 6.06954 1.69995 6.78079 1.69995H11.2192C11.9305 1.69995 12.5505 2.18401 12.723 2.87402L13.1794 4.69995H15.75C16.0538 4.69995 16.3 4.94619 16.3 5.24995C16.3 5.55371 16.0538 5.79995 15.75 5.79995H14.7621L14.1813 13.9316C14.086 15.2661 12.9756 16.3 11.6378 16.3H6.36225C5.02442 16.3 3.91405 15.2661 3.81873 13.9316L3.2379 5.79995H2.25001C1.94626 5.79995 1.70001 5.55371 1.70001 5.24995C1.70001 4.94619 1.94626 4.69995 2.25001 4.69995H4.82059ZM4.3407 5.79995H13.6593L13.0841 13.8533C13.0299 14.6121 12.3985 15.2 11.6378 15.2H6.36225C5.60152 15.2 4.97014 14.6121 4.91594 13.8533L4.3407 5.79995Z" fill="#C4F261"/>
</g>
</svg>
