<svg width="16" height="16" viewBox="0 0 16 16" fill="none" xmlns="http://www.w3.org/2000/svg">
<g id="Group 1321314780">
<path id="Vector" d="M15.5 4.64663V4.648V11.352C15.5 12.7085 15.0974 13.7312 14.4139 14.4144C13.7304 15.0975 12.707 15.5 11.3497 15.5H4.65032C3.29297 15.5 2.26975 15.0975 1.5863 14.4136C0.902815 13.7296 0.5 12.7049 0.5 11.344V4.648C0.5 3.29151 0.902601 2.26878 1.58608 1.58564C2.26959 0.902472 3.29296 0.5 4.65032 0.5H11.3577C12.7151 0.5 13.7383 0.902514 14.4207 1.58542C15.1029 2.26819 15.5037 3.29045 15.5 4.64663ZM12.1834 6.51364L12.1834 6.51369L12.1893 6.5076C12.6056 6.07713 12.6141 5.38888 12.1834 4.95836C11.756 4.53121 11.0554 4.53121 10.628 4.95836L6.86742 8.71707L5.37997 7.23036C4.95261 6.80321 4.25197 6.80321 3.82462 7.23036C3.39712 7.65764 3.39712 8.35836 3.82462 8.78564L6.08975 11.0496C6.29452 11.2543 6.57331 11.372 6.86742 11.372C7.16154 11.372 7.44033 11.2543 7.6451 11.0496L12.1834 6.51364Z" fill="#1B1A1F" stroke="#1B1A1F"/>
</g>
</svg>
