<svg width="91" height="91" viewBox="0 0 91 91" fill="none" xmlns="http://www.w3.org/2000/svg">
<rect width="91" height="91" rx="16" fill="#1B1A1F"/>
<g filter="url(#filter0_d_591_4744)">
<path d="M36.0874 74.7945C33.6276 75.3271 31.5148 75.2895 29.7489 74.6814C27.983 74.0734 26.4663 73.0152 25.1987 71.5069C23.921 69.9513 22.8604 68.0267 22.0171 65.7332C21.2109 63.3822 20.5005 60.7876 19.8859 57.9494C19.4967 56.1518 19.085 54.1363 18.6508 51.9028C18.2167 49.6693 17.8721 47.3916 17.6169 45.0698C17.409 42.7378 17.3533 40.4223 17.4498 38.1234C17.5935 35.8143 18.025 33.6905 18.7443 31.752C19.4635 29.8134 20.567 28.1631 22.0548 26.801C23.5797 25.3813 25.5957 24.4 28.1028 23.8571L29.309 23.5959C31.012 23.2271 32.8012 22.914 34.6768 22.6564C36.5421 22.3515 38.3909 22.1988 40.2231 22.1982C42.045 22.1503 43.8318 22.2834 45.5836 22.5974C47.3353 22.9113 48.9202 23.4843 50.3384 24.3162C51.7566 25.1481 52.9946 26.2914 54.0525 27.746C55.1 29.1534 55.8645 30.9687 56.346 33.192C56.725 34.9422 56.9774 36.7942 57.1034 38.7478C57.2663 40.6438 57.2298 42.5336 56.9939 44.417C56.7579 46.3004 56.2835 48.1116 55.5706 49.8507C54.8475 51.5424 53.8181 53.0777 52.4824 54.4564C51.9226 55.0728 51.2528 55.6388 50.4731 56.1543C49.6933 56.6698 48.9013 57.0146 48.0972 57.1888C46.8673 57.4551 45.7198 57.5302 44.6547 57.4142C43.5896 57.2982 42.4421 57.3734 41.2122 57.6397C40.4081 57.8138 39.8712 58.0786 39.6015 58.4342C39.3791 58.7795 39.3448 59.3069 39.4984 60.0164C39.6623 60.7733 39.8921 61.4911 40.1876 62.1699C40.5202 62.7912 40.858 63.4362 41.2008 64.1047C41.5808 64.7158 41.9185 65.3607 42.2141 66.0395C42.5569 66.7081 42.8052 67.3972 42.9588 68.1067C43.1637 69.0528 43.054 69.9184 42.6298 70.7036C42.2426 71.4312 41.6879 72.0713 40.9657 72.6239C40.2435 73.1765 39.4298 73.6498 38.5247 74.0439C37.6567 74.3804 36.8442 74.6306 36.0874 74.7945ZM39.091 45.0996C39.8952 44.9254 40.5267 44.6401 40.9856 44.2436C41.4342 43.7998 41.7729 43.3055 42.0016 42.7608C42.22 42.1687 42.31 41.555 42.2714 40.9196C42.2802 40.2739 42.218 39.6436 42.0848 39.0286C41.7058 37.2784 41.0137 36.1407 40.0086 35.6155C39.0035 35.0903 37.957 34.9456 36.869 35.1812C36.3486 35.2938 35.8641 35.5721 35.4155 36.0159C34.9566 36.4124 34.5707 36.9169 34.2576 37.5294C33.9919 38.1317 33.7888 38.7947 33.6484 39.5184C33.545 40.1846 33.565 40.8488 33.7084 41.511C33.944 42.599 34.5478 43.5577 35.5198 44.3872C36.5288 45.1592 37.7192 45.3966 39.091 45.0996Z" fill="url(#paint0_linear_591_4744)"/>
</g>
<g filter="url(#filter1_d_591_4744)">
<circle cx="68.5471" cy="23.1116" r="8.47" fill="url(#paint1_linear_591_4744)"/>
</g>
<defs>
<filter id="filter0_d_591_4744" x="13.4038" y="18.1887" width="47.7993" height="60.9789" filterUnits="userSpaceOnUse" color-interpolation-filters="sRGB">
<feFlood flood-opacity="0" result="BackgroundImageFix"/>
<feColorMatrix in="SourceAlpha" type="matrix" values="0 0 0 0 0 0 0 0 0 0 0 0 0 0 0 0 0 0 127 0" result="hardAlpha"/>
<feOffset/>
<feGaussianBlur stdDeviation="2"/>
<feComposite in2="hardAlpha" operator="out"/>
<feColorMatrix type="matrix" values="0 0 0 0 0.45098 0 0 0 0 0.482353 0 0 0 0 0.596078 0 0 0 0.25 0"/>
<feBlend mode="normal" in2="BackgroundImageFix" result="effect1_dropShadow_591_4744"/>
<feBlend mode="normal" in="SourceGraphic" in2="effect1_dropShadow_591_4744" result="shape"/>
</filter>
<filter id="filter1_d_591_4744" x="56.0771" y="10.6416" width="24.9399" height="24.9399" filterUnits="userSpaceOnUse" color-interpolation-filters="sRGB">
<feFlood flood-opacity="0" result="BackgroundImageFix"/>
<feColorMatrix in="SourceAlpha" type="matrix" values="0 0 0 0 0 0 0 0 0 0 0 0 0 0 0 0 0 0 127 0" result="hardAlpha"/>
<feOffset/>
<feGaussianBlur stdDeviation="2"/>
<feComposite in2="hardAlpha" operator="out"/>
<feColorMatrix type="matrix" values="0 0 0 0 0.45098 0 0 0 0 0.482353 0 0 0 0 0.596078 0 0 0 0.25 0"/>
<feBlend mode="normal" in2="BackgroundImageFix" result="effect1_dropShadow_591_4744"/>
<feBlend mode="normal" in="SourceGraphic" in2="effect1_dropShadow_591_4744" result="shape"/>
</filter>
<linearGradient id="paint0_linear_591_4744" x1="33.1761" y1="22.7585" x2="44.0699" y2="73.0659" gradientUnits="userSpaceOnUse">
<stop stop-color="#E8F2A6"/>
<stop offset="1" stop-color="#A2F120"/>
</linearGradient>
<linearGradient id="paint1_linear_591_4744" x1="68.5471" y1="14.6416" x2="68.5471" y2="31.5816" gradientUnits="userSpaceOnUse">
<stop stop-color="#E8F2A6"/>
<stop offset="1" stop-color="#A2F120"/>
</linearGradient>
</defs>
</svg>
