<svg width="1200" height="630" viewBox="0 0 1200 630" fill="none" xmlns="http://www.w3.org/2000/svg">
<g clip-path="url(#clip0_872_5774)">
<rect width="1200" height="630" fill="#CFFF25"/>
<circle cx="982.8" cy="12.8" r="607.8" fill="url(#paint0_radial_872_5774)" fill-opacity="0.25"/>
<circle cx="973.1" cy="13.1" r="506.1" fill="url(#paint1_radial_872_5774)" fill-opacity="0.45"/>
<circle cx="982.5" cy="12.5" r="454.5" fill="url(#paint2_radial_872_5774)" fill-opacity="0.8"/>
<path d="M955.192 401.301C945.056 401.301 935.15 400.149 925.474 397.845C915.952 395.388 907.428 391.395 899.902 385.866C892.53 380.337 886.54 373.041 881.933 363.98C877.325 354.918 875.021 343.707 875.021 330.345C875.021 318.519 877.018 307.154 881.011 296.249C885.158 285.345 891.071 275.746 898.75 267.452C906.583 259.159 916.028 252.555 927.086 247.64C938.298 242.572 951.046 240.038 965.329 240.038C968.708 240.038 972.394 240.422 976.387 241.19C980.534 241.804 984.373 242.956 987.906 244.645C991.438 246.335 994.356 248.638 996.66 251.557C999.117 254.475 1000.35 258.237 1000.35 262.845C1000.35 264.995 999.962 267.836 999.194 271.369C998.426 274.748 997.274 278.05 995.738 281.275C994.356 284.5 992.667 287.342 990.67 289.799C988.674 292.103 986.447 293.255 983.989 293.255C982.453 293.255 980.457 292.871 978 292.103C975.696 291.181 973.238 290.26 970.627 289.338C968.017 288.417 965.329 287.572 962.564 286.804C959.8 285.883 957.189 285.422 954.732 285.422C949.663 285.422 945.363 286.65 941.83 289.108C938.298 291.565 935.38 294.714 933.076 298.553C930.926 302.239 929.313 306.386 928.238 310.993C927.317 315.447 926.856 319.825 926.856 324.125C926.856 327.504 927.47 331.113 928.699 334.953C929.928 338.792 931.694 342.325 933.998 345.55C936.301 348.775 939.143 351.463 942.522 353.613C946.054 355.763 950.047 356.838 954.501 356.838C957.112 356.838 959.339 356.301 961.182 355.226C963.179 354.151 964.868 352.845 966.25 351.309C967.633 349.62 968.631 347.777 969.245 345.78C970.013 343.784 970.397 341.941 970.397 340.251C970.397 336.719 969.245 334.569 966.941 333.801C964.791 333.033 961.72 332.649 957.726 332.649C955.73 332.649 953.733 332.572 951.737 332.418C949.894 332.111 948.204 331.42 946.668 330.345C945.133 329.116 943.827 327.427 942.752 325.277C941.831 322.973 941.37 319.825 941.37 315.831C941.37 311.838 941.907 308.767 942.982 306.616C944.057 304.466 945.517 302.854 947.36 301.778C949.356 300.55 951.66 299.859 954.271 299.705C957.035 299.398 960.03 299.244 963.255 299.244C972.624 299.244 980.303 300.012 986.293 301.548C992.436 303.084 997.274 305.541 1000.81 308.92C1004.34 312.145 1006.8 316.369 1008.18 321.591C1009.56 326.813 1010.25 333.186 1010.25 340.712C1010.25 349.773 1009.1 358.067 1006.8 365.593C1004.65 372.965 1001.27 379.338 996.66 384.714C992.206 389.936 986.523 394.006 979.612 396.924C972.701 399.842 964.561 401.301 955.192 401.301Z" fill="#1B1A1F"/>
<path d="M837.762 405.908C832.847 405.908 828.317 405.677 824.17 405.217C820.023 404.756 816.414 403.604 813.342 401.761C810.271 400.072 807.89 397.614 806.201 394.389C804.511 391.01 803.667 386.556 803.667 381.027C803.667 377.495 803.743 373.962 803.897 370.43C804.204 366.744 804.358 363.135 804.358 359.602C804.358 357.298 803.513 354.15 801.824 350.157C800.134 346.164 798.061 342.247 795.603 338.408C793.146 334.414 790.612 331.036 788.001 328.271C785.544 325.353 783.393 323.894 781.55 323.894C780.475 323.894 779.861 324.662 779.707 326.198C779.554 327.734 779.477 328.885 779.477 329.653C779.477 334.722 779.707 339.176 780.168 343.015C780.783 346.855 781.55 350.541 782.472 354.073C783.547 357.452 784.776 360.908 786.158 364.44C787.54 367.972 789.076 372.042 790.766 376.65C791.226 377.879 791.687 379.184 792.148 380.566C792.609 381.949 792.839 383.331 792.839 384.713C792.839 387.938 791.533 390.626 788.923 392.776C786.312 394.926 783.163 396.616 779.477 397.845C775.945 399.073 772.259 399.918 768.419 400.379C764.579 400.839 761.431 401.07 758.974 401.07C756.516 401.07 753.829 400.916 750.91 400.609C748.146 400.302 745.458 399.764 742.847 398.996C740.236 398.075 737.856 396.846 735.706 395.31C733.555 393.621 731.866 391.548 730.637 389.09C728.641 384.79 727.028 378.877 725.8 371.351C724.724 363.826 723.956 355.839 723.496 347.392C723.035 338.945 722.728 330.728 722.574 322.742C722.574 314.756 722.574 308.152 722.574 302.93C722.574 294.943 722.574 286.65 722.574 278.049C722.574 269.295 723.649 261.001 725.8 253.169C726.567 250.404 728.18 248.177 730.637 246.488C733.095 244.798 735.936 243.493 739.161 242.571C742.387 241.496 745.689 240.805 749.067 240.498C752.446 240.191 755.288 240.037 757.591 240.037C762.66 240.037 767.421 240.959 771.875 242.802C776.329 244.491 779.861 247.716 782.472 252.477C783.24 253.86 784.238 256.087 785.467 259.158C786.849 262.076 788.308 265.455 789.844 269.295C791.533 272.981 793.3 276.82 795.143 280.814C796.986 284.807 798.829 288.493 800.672 291.872C802.668 295.097 804.511 297.785 806.201 299.935C808.044 302.085 809.656 303.16 811.039 303.16C811.499 303.16 811.806 302.853 811.96 302.239C812.267 301.471 812.421 300.703 812.421 299.935C812.574 299.013 812.651 298.169 812.651 297.401C812.651 296.479 812.651 295.942 812.651 295.788C812.651 292.409 812.114 289.03 811.039 285.652C810.117 282.273 808.965 278.894 807.583 275.515C806.354 272.136 805.202 268.757 804.127 265.378C803.206 262 802.745 258.621 802.745 255.242C802.745 252.324 803.513 249.79 805.049 247.64C806.585 245.336 808.504 243.416 810.808 241.88C813.266 240.344 815.876 239.192 818.641 238.425C821.406 237.503 824.016 237.042 826.474 237.042C828.624 237.042 831.235 237.273 834.307 237.733C837.378 238.194 840.373 238.962 843.291 240.037C846.363 240.959 849.127 242.187 851.585 243.723C854.042 245.105 855.808 246.872 856.883 249.022C858.573 252.401 860.032 256.701 861.261 261.923C862.489 267.145 863.564 272.904 864.486 279.201C865.407 285.344 866.175 291.872 866.79 298.783C867.404 305.541 867.865 312.145 868.172 318.595C868.633 324.892 868.94 330.805 869.093 336.334C869.247 341.863 869.324 346.548 869.324 350.387C869.324 352.23 869.247 354.995 869.093 358.681C869.093 362.367 869.017 366.206 868.863 370.199C868.863 374.193 868.709 377.955 868.402 381.488C868.249 384.867 867.941 387.247 867.481 388.63C866.713 391.087 865.177 393.391 862.873 395.541C860.569 397.537 857.958 399.304 855.04 400.839C852.122 402.375 849.051 403.604 845.825 404.525C842.754 405.447 840.066 405.908 837.762 405.908Z" fill="#1B1A1F"/>
<path d="M682.312 401.301C672.277 401.301 664.638 398.455 659.396 392.765C654.303 386.92 651.158 378.845 649.959 368.541C647.863 349.623 647.039 330.936 647.488 312.479C648.087 294.023 649.66 275.489 652.206 256.879C652.655 253.649 653.929 250.958 656.026 248.805C658.272 246.497 660.818 244.729 663.664 243.498C666.66 242.268 669.656 241.422 672.651 240.961C675.796 240.345 678.567 240.038 680.964 240.038C686.656 240.038 691.748 241.422 696.241 244.19C700.885 246.959 703.805 251.957 705.004 259.186C706.352 267.184 707.475 276.335 708.374 286.64C709.272 296.791 710.021 307.25 710.62 318.016C711.369 328.629 711.893 339.164 712.193 349.623C712.493 359.928 712.642 369.233 712.642 377.538C712.642 381.691 711.669 385.305 709.722 388.381C707.774 391.304 705.303 393.764 702.308 395.764C699.462 397.609 696.241 398.994 692.647 399.917C689.052 400.839 685.607 401.301 682.312 401.301Z" fill="#1B1A1F"/>
<path d="M583.466 401.992C573.944 401.992 565.958 400.533 559.507 397.615C553.21 394.543 547.989 390.55 543.842 385.635C539.695 380.567 536.547 374.731 534.396 368.127C532.246 361.523 530.71 354.534 529.789 347.162C528.867 339.79 528.33 332.265 528.176 324.586C528.176 316.906 528.176 309.611 528.176 302.7C528.176 300.089 528.176 296.403 528.176 291.642C528.33 286.881 528.56 281.966 528.867 276.898C529.328 271.83 529.866 267.068 530.48 262.615C531.094 258.007 531.939 254.551 533.014 252.248C535.318 247.333 538.313 244.108 541.999 242.572C545.685 240.882 549.985 240.038 554.9 240.038C557.511 240.038 560.813 240.191 564.806 240.498C568.953 240.806 572.946 241.497 576.786 242.572C580.779 243.493 584.158 245.029 586.922 247.179C589.687 249.176 591.069 252.017 591.069 255.703C591.069 258.314 590.685 261.002 589.917 263.766C589.303 266.377 588.765 268.988 588.304 271.599C586.922 278.818 585.77 286.036 584.849 293.255C583.927 300.319 583.466 307.538 583.466 314.91C583.466 318.442 583.543 322.435 583.697 326.889C584.004 331.343 584.772 335.49 586.001 339.33C587.383 343.169 589.379 346.395 591.99 349.005C594.755 351.616 598.595 352.922 603.509 352.922C606.274 352.922 608.654 352.691 610.651 352.231C612.801 351.616 614.798 351.079 616.641 350.618C618.637 350.004 620.634 349.466 622.63 349.005C624.627 348.391 627.008 348.084 629.772 348.084C632.383 348.084 634.61 349.005 636.453 350.848C638.45 352.538 639.985 354.688 641.06 357.299C642.289 359.756 643.134 362.367 643.595 365.132C644.209 367.896 644.516 370.354 644.516 372.504C644.516 375.575 644.055 378.417 643.134 381.028C642.212 383.485 640.6 385.789 638.296 387.939C635.531 390.396 631.769 392.547 627.008 394.39C622.4 396.233 617.485 397.692 612.263 398.767C607.195 399.842 602.05 400.686 596.828 401.301C591.76 401.762 587.306 401.992 583.466 401.992Z" fill="#1B1A1F"/>
<path d="M467.619 401.992C458.097 401.992 450.111 400.533 443.66 397.615C437.363 394.543 432.141 390.55 427.995 385.635C423.848 380.567 420.699 374.731 418.549 368.127C416.399 361.523 414.863 354.534 413.942 347.162C413.02 339.79 412.483 332.265 412.329 324.586C412.329 316.906 412.329 309.611 412.329 302.7C412.329 300.089 412.329 296.403 412.329 291.642C412.483 286.881 412.713 281.966 413.02 276.898C413.481 271.83 414.019 267.068 414.633 262.615C415.247 258.007 416.092 254.551 417.167 252.248C419.471 247.333 422.466 244.108 426.152 242.572C429.838 240.882 434.138 240.038 439.053 240.038C441.664 240.038 444.966 240.191 448.959 240.498C453.106 240.806 457.099 241.497 460.938 242.572C464.932 243.493 468.31 245.029 471.075 247.179C473.839 249.176 475.222 252.017 475.222 255.703C475.222 258.314 474.838 261.002 474.07 263.766C473.456 266.377 472.918 268.988 472.457 271.599C471.075 278.818 469.923 286.036 469.002 293.255C468.08 300.319 467.619 307.538 467.619 314.91C467.619 318.442 467.696 322.435 467.85 326.889C468.157 331.343 468.925 335.49 470.153 339.33C471.536 343.169 473.532 346.395 476.143 349.005C478.908 351.616 482.747 352.922 487.662 352.922C490.427 352.922 492.807 352.691 494.804 352.231C496.954 351.616 498.95 351.079 500.793 350.618C502.79 350.004 504.787 349.466 506.783 349.005C508.78 348.391 511.16 348.084 513.925 348.084C516.536 348.084 518.763 349.005 520.606 350.848C522.602 352.538 524.138 354.688 525.213 357.299C526.442 359.756 527.287 362.367 527.747 365.132C528.362 367.896 528.669 370.354 528.669 372.504C528.669 375.575 528.208 378.417 527.287 381.028C526.365 383.485 524.753 385.789 522.449 387.939C519.684 390.396 515.921 392.547 511.16 394.39C506.553 396.233 501.638 397.692 496.416 398.767C491.348 399.842 486.203 400.686 480.981 401.301C475.913 401.762 471.459 401.992 467.619 401.992Z" fill="#1B1A1F"/>
<path d="M373.36 401.3C362.734 401.3 354.646 399.132 349.095 394.797C343.703 390.344 340.373 384.192 339.104 376.34C336.884 361.927 336.011 347.689 336.487 333.627C337.122 319.565 338.787 305.444 341.483 291.265C341.959 288.804 343.307 286.753 345.527 285.113C347.906 283.355 350.602 282.007 353.615 281.07C356.787 280.132 359.959 279.488 363.13 279.136C366.461 278.668 369.395 278.433 371.932 278.433C377.959 278.433 383.351 279.488 388.108 281.597C393.025 283.706 396.117 287.515 397.386 293.023C398.813 299.116 400.003 306.089 400.954 313.94C401.906 321.674 402.699 329.643 403.333 337.845C404.126 345.931 404.681 353.958 404.998 361.927C405.316 369.778 405.474 376.868 405.474 383.195C405.474 386.359 404.443 389.113 402.382 391.457C400.32 393.683 397.703 395.558 394.531 397.082C391.518 398.488 388.108 399.543 384.302 400.246C380.496 400.949 376.849 401.3 373.36 401.3Z" fill="#1B1A1F"/>
<path d="M262.62 404.705C254.814 406.396 248.11 406.276 242.506 404.346C236.903 402.417 232.09 399.059 228.068 394.273C224.013 389.337 220.648 383.23 217.972 375.952C215.414 368.492 213.159 360.258 211.209 351.252C209.974 345.548 208.668 339.152 207.29 332.065C205.912 324.977 204.819 317.75 204.009 310.382C203.349 302.982 203.173 295.635 203.479 288.34C203.935 281.013 205.304 274.273 207.586 268.122C209.869 261.971 213.37 256.734 218.092 252.411C222.93 247.906 229.328 244.792 237.283 243.07L241.111 242.241C246.515 241.071 252.192 240.077 258.144 239.26C264.063 238.292 269.929 237.808 275.743 237.806C281.525 237.654 287.195 238.076 292.753 239.072C298.312 240.069 303.341 241.887 307.842 244.527C312.342 247.166 316.27 250.794 319.627 255.41C322.951 259.876 325.377 265.637 326.905 272.691C328.108 278.245 328.909 284.122 329.308 290.321C329.825 296.338 329.71 302.334 328.961 308.311C328.212 314.287 326.707 320.035 324.445 325.553C322.15 330.921 318.883 335.793 314.645 340.168C312.869 342.124 310.743 343.92 308.269 345.556C305.795 347.192 303.281 348.286 300.73 348.838C296.827 349.684 293.186 349.922 289.806 349.554C286.426 349.186 282.785 349.424 278.882 350.269C276.33 350.822 274.627 351.662 273.771 352.79C273.065 353.886 272.956 355.56 273.444 357.811C273.964 360.213 274.693 362.491 275.631 364.645C276.686 366.616 277.758 368.663 278.846 370.784C280.052 372.723 281.123 374.77 282.061 376.924C283.149 379.045 283.937 381.232 284.425 383.484C285.075 386.486 284.727 389.232 283.38 391.724C282.152 394.033 280.392 396.064 278.1 397.817C275.808 399.571 273.226 401.073 270.354 402.323C267.6 403.391 265.022 404.185 262.62 404.705ZM272.151 310.477C274.703 309.924 276.707 309.019 278.163 307.761C279.587 306.352 280.661 304.784 281.387 303.055C282.08 301.177 282.366 299.229 282.243 297.213C282.271 295.164 282.074 293.164 281.651 291.212C280.448 285.658 278.252 282.048 275.063 280.382C271.873 278.715 268.553 278.256 265.1 279.003C263.449 279.361 261.912 280.244 260.488 281.652C259.032 282.91 257.807 284.511 256.814 286.455C255.97 288.366 255.326 290.47 254.88 292.767C254.552 294.88 254.616 296.988 255.071 299.09C255.819 302.542 257.735 305.584 260.819 308.216C264.021 310.666 267.798 311.419 272.151 310.477Z" fill="#1B1A1F"/>
<ellipse cx="371.302" cy="243.877" rx="26.8772" ry="26.8772" fill="#1B1A1F"/>
<rect x="336.625" y="118.94" width="166.14" height="70.1532" rx="35.0766" transform="rotate(154.577 336.625 118.94)" stroke="#1B1A1F" stroke-width="5.346"/>
<path d="M266.732 152.055V152.055C240.402 144.925 225.543 117.063 234.291 91.2255L235.282 88.3004" stroke="#1B1A1F" stroke-width="5.346"/>
<rect x="1011.98" y="150.405" width="166.14" height="70.1532" rx="35.0766" transform="rotate(-122.345 1011.98 150.405)" stroke="#1B1A1F" stroke-width="5.346"/>
<path d="M970.681 85.0128V85.0128C974.585 58.0152 1000.45 39.9062 1027.16 45.4767L1030.18 46.1073" stroke="#1B1A1F" stroke-width="5.346"/>
<rect x="171.659" y="585.95" width="166.14" height="70.1532" rx="35.0766" transform="rotate(-132.543 171.659 585.95)" stroke="#1B1A1F" stroke-width="5.346"/>
<path d="M119.437 528.903V528.903C118.5 501.64 140.753 479.237 168.021 479.992L171.108 480.078" stroke="#1B1A1F" stroke-width="5.346"/>
<rect x="958.88" y="617.741" width="184.6" height="77.948" rx="38.974" transform="rotate(-39.1281 958.88 617.741)" stroke="#1B1A1F" stroke-width="5.94"/>
<path d="M1025.61 563.594V563.594C1055.91 564.359 1079.28 590.524 1076.64 620.718L1076.34 624.136" stroke="#1B1A1F" stroke-width="5.94"/>
</g>
<defs>
<radialGradient id="paint0_radial_872_5774" cx="0" cy="0" r="1" gradientUnits="userSpaceOnUse" gradientTransform="translate(982.8 12.8) rotate(90) scale(607.8)">
<stop offset="0.78" stop-color="#CFFF25" stop-opacity="0"/>
<stop offset="1" stop-color="white"/>
</radialGradient>
<radialGradient id="paint1_radial_872_5774" cx="0" cy="0" r="1" gradientUnits="userSpaceOnUse" gradientTransform="translate(973.1 13.1) rotate(90) scale(506.1)">
<stop offset="0.78" stop-color="#CFFF25" stop-opacity="0"/>
<stop offset="1" stop-color="white"/>
</radialGradient>
<radialGradient id="paint2_radial_872_5774" cx="0" cy="0" r="1" gradientUnits="userSpaceOnUse" gradientTransform="translate(982.5 12.5) rotate(90) scale(454.5)">
<stop stop-color="#A2E633"/>
<stop offset="0.395" stop-color="#A8FF00" stop-opacity="0.878505"/>
<stop offset="0.755" stop-color="#CFFF25" stop-opacity="0"/>
<stop offset="1" stop-color="white"/>
</radialGradient>
<clipPath id="clip0_872_5774">
<rect width="1200" height="630" fill="white"/>
</clipPath>
</defs>
</svg>
