<svg width="32" height="39" viewBox="0 0 32 39" fill="none" xmlns="http://www.w3.org/2000/svg">
<circle cx="16.5" cy="15.5" r="4.5" fill="white"/>
<path d="M16 19.9147C18.4116 19.9147 20.4 17.9885 20.4 15.6117C20.4 13.235 18.4116 11.3088 16 11.3088C13.5884 11.3088 11.6 13.235 11.6 15.6117C11.6 17.9885 13.5884 19.9147 16 19.9147ZM16 0.4C24.201 0.4 31.6 6.52592 31.6 16.002C31.6 18.9988 30.4163 22.2976 27.9952 25.9099C25.575 29.5209 21.934 33.4213 17.0603 37.6128C16.45 38.129 15.5304 38.1291 14.9199 37.613C10.0562 33.4215 6.42015 29.5211 4.00238 25.91C1.58371 22.2977 0.4 18.9988 0.4 16.002C0.4 6.52592 7.79901 0.4 16 0.4Z" fill="#C4F261" stroke="#C4F261" stroke-width="0.8"/>
</svg>
