<svg width="20" height="20" viewBox="0 0 20 20" fill="none" xmlns="http://www.w3.org/2000/svg">
<path d="M17.3117 12.5234L13.6211 10.8695C13.4539 10.7978 13.2714 10.769 13.0903 10.7856C12.9091 10.8023 12.735 10.8639 12.5836 10.9648C12.5683 10.9747 12.5537 10.9856 12.5399 10.9976L10.6109 12.6382C10.5909 12.6491 10.5687 12.6552 10.5459 12.656C10.5231 12.6568 10.5004 12.6523 10.4797 12.6429C9.23985 12.0445 7.95548 10.7679 7.3547 9.54524C7.34469 9.52481 7.33949 9.50236 7.33949 9.47961C7.33949 9.45686 7.34469 9.43442 7.3547 9.41399L9.00079 7.46086C9.01262 7.44642 9.02358 7.43129 9.0336 7.41555C9.13312 7.2636 9.19324 7.08926 9.20851 6.90826C9.22379 6.72726 9.19375 6.54531 9.1211 6.37883L7.47892 2.69445C7.38566 2.47696 7.22437 2.29558 7.01927 2.17754C6.81418 2.05949 6.57632 2.01115 6.34142 2.03977C5.3205 2.17398 4.38338 2.67534 3.70518 3.45016C3.02699 4.22497 2.65412 5.22022 2.65626 6.24992C2.65626 12.3671 7.63282 17.3437 13.75 17.3437C14.7797 17.3456 15.7748 16.9727 16.5496 16.2946C17.3244 15.6164 17.8258 14.6794 17.9602 13.6585C17.9887 13.4247 17.941 13.1879 17.8242 12.9834C17.7074 12.7789 17.5276 12.6175 17.3117 12.5234ZM13.75 16.4062C8.15001 16.4062 3.59376 11.8499 3.59376 6.24992C3.59115 5.44831 3.88048 4.67316 4.4077 4.06931C4.93492 3.46545 5.66396 3.07421 6.4586 2.96867H6.47657C6.50805 2.96926 6.53863 2.97935 6.56428 2.99761C6.58993 3.01587 6.60946 3.04146 6.62032 3.07102L8.26876 6.75149C8.27816 6.77195 8.28303 6.7942 8.28303 6.81672C8.28303 6.83924 8.27816 6.86149 8.26876 6.88195L6.61954 8.83977C6.6073 8.85379 6.59607 8.86867 6.58595 8.8843C6.48275 9.04184 6.42198 9.22337 6.40952 9.41129C6.39707 9.59921 6.43335 9.78717 6.51485 9.95695C7.20782 11.3757 8.63751 12.7945 10.0719 13.4874C10.2427 13.5685 10.4315 13.6039 10.6201 13.5902C10.8086 13.5765 10.9904 13.5142 11.1477 13.4093C11.1625 13.3991 11.1774 13.3882 11.1914 13.3765L13.1195 11.7359C13.1386 11.7256 13.1596 11.7196 13.1812 11.7183C13.2028 11.7169 13.2244 11.7203 13.2445 11.728L16.9359 13.382C16.9661 13.3948 16.9915 13.4168 17.0084 13.4448C17.0254 13.4729 17.0331 13.5055 17.0305 13.5382C16.9255 14.3332 16.5346 15.0628 15.9309 15.5906C15.3272 16.1184 14.5519 16.4083 13.75 16.4062Z" fill="#1B1A1F"/>
</svg>
