<svg width="30" height="30" viewBox="0 0 30 30" fill="none" xmlns="http://www.w3.org/2000/svg">
<rect x="21.2622" y="0.979492" width="11.1923" height="17.0632" rx="5.59613" transform="rotate(44.1224 21.2622 0.979492)" fill="url(#paint0_linear_369_10890)"/>
<path d="M16.9071 4.01167C19.4143 1.50774 23.4825 1.51738 25.9875 4.02239C28.4946 6.52953 28.5011 10.6031 25.9918 13.1092L13.0939 25.9877C10.5868 28.4917 6.51855 28.482 4.01355 25.977C1.50641 23.4699 1.49998 19.3963 4.00927 16.8913L16.9071 4.01167ZM18.9782 17.8417L24.8561 11.9724C25.7582 11.0677 26.2644 9.84182 26.2634 8.56413C26.2624 7.28645 25.7543 6.06141 24.8507 5.1581C23.9482 4.25588 22.7249 3.74825 21.4488 3.74644C20.1726 3.74463 18.9479 4.2488 18.0428 5.14846L12.1607 11.0231L18.9782 17.8417ZM12.6225 22.8002C12.7644 22.6479 12.8417 22.4464 12.838 22.2383C12.8344 22.0301 12.75 21.8314 12.6028 21.6842C12.4556 21.537 12.2569 21.4527 12.0488 21.449C11.8406 21.4453 11.6391 21.5226 11.4868 21.6645L9.36748 23.7827C9.15655 23.9934 8.87061 24.1118 8.57248 24.1118C8.27436 24.1118 7.98842 23.9934 7.77748 23.7827L7.26534 23.2717C7.11301 23.1297 6.91153 23.0525 6.70335 23.0561C6.49517 23.0598 6.29655 23.1441 6.14932 23.2914C6.00209 23.4386 5.91775 23.6372 5.91408 23.8454C5.91041 24.0536 5.98768 24.2551 6.12963 24.4074L6.6407 24.9185C7.15306 25.4308 7.84794 25.7186 8.57248 25.7186C9.29703 25.7186 9.9919 25.4308 10.5043 24.9185L12.6225 22.8002Z" fill="black"/>
<defs>
<linearGradient id="paint0_linear_369_10890" x1="26.8583" y1="0.979492" x2="26.8583" y2="18.0427" gradientUnits="userSpaceOnUse">
<stop stop-color="#E8F2A6"/>
<stop offset="1" stop-color="#A2F120"/>
</linearGradient>
</defs>
</svg>
