<svg width="33" height="39" viewBox="0 0 33 39" fill="none" xmlns="http://www.w3.org/2000/svg">
<path d="M16.2666 20.1622C18.6782 20.1622 20.6666 18.236 20.6666 15.8593C20.6666 13.4826 18.6782 11.5564 16.2666 11.5564C13.855 11.5564 11.8666 13.4826 11.8666 15.8593C11.8666 18.236 13.855 20.1622 16.2666 20.1622ZM16.2666 0.647559C24.4676 0.647559 31.8666 6.77348 31.8666 16.2496C31.8666 19.2463 30.6829 22.5452 28.2618 26.1574C25.8416 29.7684 22.2007 33.6688 17.3271 37.8602C16.7167 38.3766 15.7968 38.3767 15.1863 37.8603C10.3227 33.6689 6.68672 29.7686 4.26898 26.1576C1.85032 22.5453 0.666602 19.2464 0.666602 16.2496C0.666602 6.77348 8.06561 0.647559 16.2666 0.647559Z" fill="#C4F261" stroke="#C4F261" stroke-width="0.8"/>
</svg>
