<svg width="40" height="40" viewBox="0 0 40 40" fill="none" xmlns="http://www.w3.org/2000/svg">
<g filter="url(#filter0_d_668_9319)">
<rect x="4" y="4" width="32" height="32" rx="16" fill="#2B2A2F"/>
</g>
<rect x="24.1748" y="10.6528" width="7.46151" height="11.3755" rx="3.73076" transform="rotate(44.1224 24.1748 10.6528)" fill="url(#paint0_linear_668_9319)"/>
<path d="M21.2717 12.6744C22.9431 11.0052 25.6552 11.0116 27.3252 12.6816C28.9967 14.353 29.0009 17.0687 27.3281 18.7394L18.7295 27.3252C17.0581 28.9944 14.3459 28.988 12.6759 27.318C11.0045 25.6466 11.0002 22.9309 12.6731 21.2609L21.2717 12.6744ZM22.6524 21.8944L26.5709 17.9816C27.1724 17.3784 27.5099 16.5612 27.5092 15.7094C27.5085 14.8576 27.1698 14.0409 26.5674 13.4387C25.9657 12.8373 25.1502 12.4988 24.2994 12.4976C23.4487 12.4964 22.6322 12.8325 22.0288 13.4323L18.1074 17.3487L22.6524 21.8944ZM18.4152 25.2002C18.5099 25.0986 18.5614 24.9643 18.5589 24.8255C18.5565 24.6867 18.5003 24.5543 18.4021 24.4561C18.304 24.358 18.1715 24.3018 18.0327 24.2993C17.894 24.2969 17.7596 24.3484 17.6581 24.443L16.2452 25.8552C16.1046 25.9956 15.914 26.0745 15.7152 26.0745C15.5165 26.0745 15.3259 25.9956 15.1852 25.8552L14.8438 25.5144C14.7423 25.4198 14.6079 25.3683 14.4691 25.3708C14.3304 25.3732 14.1979 25.4294 14.0998 25.5276C14.0016 25.6257 13.9454 25.7581 13.943 25.8969C13.9405 26.0357 13.992 26.17 14.0867 26.2716L14.4274 26.6123C14.769 26.9538 15.2322 27.1457 15.7152 27.1457C16.1983 27.1457 16.6615 26.9538 17.0031 26.6123L18.4152 25.2002Z" fill="black"/>
<path d="M17.3232 18.1401L21.8349 22.663L17.9984 26.4901C16.7494 27.736 14.727 27.7335 13.4811 26.4845V26.4845C12.2352 25.2356 12.2377 23.2131 13.4867 21.9672L17.3232 18.1401Z" fill="url(#paint1_linear_668_9319)"/>
<defs>
<filter id="filter0_d_668_9319" x="0" y="0" width="40" height="40" filterUnits="userSpaceOnUse" color-interpolation-filters="sRGB">
<feFlood flood-opacity="0" result="BackgroundImageFix"/>
<feColorMatrix in="SourceAlpha" type="matrix" values="0 0 0 0 0 0 0 0 0 0 0 0 0 0 0 0 0 0 127 0" result="hardAlpha"/>
<feOffset/>
<feGaussianBlur stdDeviation="2"/>
<feComposite in2="hardAlpha" operator="out"/>
<feColorMatrix type="matrix" values="0 0 0 0 0.45184 0 0 0 0 0.480639 0 0 0 0 0.595833 0 0 0 0.5 0"/>
<feBlend mode="normal" in2="BackgroundImageFix" result="effect1_dropShadow_668_9319"/>
<feBlend mode="normal" in="SourceGraphic" in2="effect1_dropShadow_668_9319" result="shape"/>
</filter>
<linearGradient id="paint0_linear_668_9319" x1="27.9056" y1="10.6528" x2="27.9056" y2="22.0283" gradientUnits="userSpaceOnUse">
<stop stop-color="#E8F2A6"/>
<stop offset="1" stop-color="#C4F261"/>
</linearGradient>
<linearGradient id="paint1_linear_668_9319" x1="19.5791" y1="20.4016" x2="13.4811" y2="26.4845" gradientUnits="userSpaceOnUse">
<stop stop-color="#E8F2A6"/>
<stop offset="1" stop-color="#C4F261"/>
</linearGradient>
</defs>
</svg>
