<svg width="20" height="20" viewBox="0 0 20 20" fill="none" xmlns="http://www.w3.org/2000/svg">
<path fill-rule="evenodd" clip-rule="evenodd" d="M10.1936 16.8693C11.0951 16.0512 11.9295 15.162 12.6887 14.2104C14.2878 12.2013 15.2605 10.2205 15.3264 8.4591C15.3524 7.74327 15.2339 7.02952 14.978 6.36051C14.722 5.69149 14.3338 5.08093 13.8366 4.56529C13.3394 4.04965 12.7434 3.63952 12.0841 3.35939C11.4249 3.07926 10.7159 2.93489 9.99959 2.93489C9.28328 2.93489 8.57431 3.07926 7.91505 3.35939C7.25579 3.63952 6.65975 4.04965 6.16254 4.56529C5.66533 5.08093 5.27715 5.69149 5.02119 6.36051C4.76522 7.02952 4.64673 7.74327 4.67279 8.4591C4.73941 10.2205 5.71298 12.2013 7.3113 14.2104C8.07045 15.162 8.90482 16.0512 9.80636 16.8693C9.89311 16.9476 9.95765 17.0046 9.99998 17.0401L10.1936 16.8693ZM9.42148 17.7825C9.42148 17.7825 3.729 12.9883 3.729 8.27097C3.729 6.60781 4.38969 5.01276 5.56573 3.83673C6.74177 2.66069 8.33681 2 9.99998 2C11.6631 2 13.2582 2.66069 14.4342 3.83673C15.6103 5.01276 16.271 6.60781 16.271 8.27097C16.271 12.9883 10.5785 17.7825 10.5785 17.7825C10.2618 18.0741 9.74052 18.0709 9.42148 17.7825ZM9.99998 10.4658C10.5821 10.4658 11.1404 10.2346 11.552 9.82296C11.9636 9.41135 12.1948 8.85308 12.1948 8.27097C12.1948 7.68887 11.9636 7.1306 11.552 6.71899C11.1404 6.30737 10.5821 6.07613 9.99998 6.07613C9.41787 6.07613 8.8596 6.30737 8.44799 6.71899C8.03638 7.1306 7.80514 7.68887 7.80514 8.27097C7.80514 8.85308 8.03638 9.41135 8.44799 9.82296C8.8596 10.2346 9.41787 10.4658 9.99998 10.4658ZM9.99998 11.4065C9.1684 11.4065 8.37087 11.0761 7.78285 10.4881C7.19484 9.90008 6.86449 9.10256 6.86449 8.27097C6.86449 7.43939 7.19484 6.64187 7.78285 6.05385C8.37087 5.46583 9.1684 5.13549 9.99998 5.13549C10.8316 5.13549 11.6291 5.46583 12.2171 6.05385C12.8051 6.64187 13.1355 7.43939 13.1355 8.27097C13.1355 9.10256 12.8051 9.90008 12.2171 10.4881C11.6291 11.0761 10.8316 11.4065 9.99998 11.4065Z" fill="#1B1A1F"/>
</svg>
