<svg width="328" height="368" viewBox="0 0 328 368" fill="none" xmlns="http://www.w3.org/2000/svg">
<rect width="328" height="368" rx="24" fill="#1B1A1F"/>
<rect x="8.5" y="72.5" width="311" height="287" rx="19.5" stroke="#1B1A1F"/>
<path d="M40.1194 93.947V99.007H39.2174V93.947H40.1194ZM33.1234 96.499C33.1234 97.346 33.8384 97.951 34.7954 97.951C35.7634 97.951 36.4674 97.346 36.4674 96.499C36.4674 95.641 35.7634 95.036 34.7954 95.036C33.8384 95.036 33.1234 95.641 33.1234 96.499ZM37.3474 96.499C37.3474 97.797 36.2694 98.677 34.7954 98.677C33.3214 98.677 32.2544 97.797 32.2544 96.499C32.2544 95.19 33.3214 94.299 34.7954 94.299C36.2694 94.299 37.3474 95.19 37.3474 96.499ZM34.6414 102.967H40.4494V103.682H33.7504V101.207H39.2284V100.206H33.7284V99.491H40.1194V101.878H34.6414V102.967Z" fill="#7A7A7A"/>
<path d="M80.2374 98.644H82.1954V93.958H83.0974V99.755H82.1954V99.238H80.2374V98.644ZM78.1804 94.772C77.2234 94.772 76.5964 95.102 76.5964 95.63C76.5964 96.136 77.2234 96.477 78.1804 96.477C79.1484 96.477 79.7644 96.136 79.7644 95.63C79.7644 95.102 79.1484 94.772 78.1804 94.772ZM78.1804 97.093C76.7174 97.093 75.7494 96.532 75.7494 95.63C75.7494 94.706 76.7174 94.145 78.1804 94.145C79.6434 94.145 80.6114 94.706 80.6114 95.63C80.6114 96.532 79.6434 97.093 78.1804 97.093ZM77.6744 99.788V98.314C76.7614 98.336 75.8924 98.347 75.1004 98.347L74.9904 97.665C76.8934 97.665 79.3024 97.654 81.4144 97.412L81.4694 98.006C80.5124 98.138 79.5334 98.215 78.5764 98.27V99.788H77.6744ZM77.3994 103.033H83.4384V103.704H76.5084V101.559H82.2174V100.767H76.4864V100.118H83.0974V102.175H77.3994V103.033Z" fill="#7A7A7A"/>
<path d="M123.974 95.146V95.861H118.078V95.146H120.586V93.958H121.488V95.146H123.974ZM119.563 98.27C119.563 98.952 120.157 99.392 121.037 99.392C121.917 99.392 122.511 98.952 122.511 98.27C122.511 97.588 121.917 97.137 121.037 97.137C120.157 97.137 119.563 97.588 119.563 98.27ZM121.488 100.074V101.119C122.379 101.075 123.292 101.009 124.139 100.877L124.194 101.548C122.082 101.922 119.761 101.944 118.034 101.944L117.913 101.185C118.705 101.185 119.629 101.185 120.586 101.152V100.074C119.453 99.931 118.705 99.249 118.705 98.27C118.705 97.159 119.662 96.444 121.037 96.444C122.412 96.444 123.369 97.159 123.369 98.27C123.369 99.249 122.621 99.931 121.488 100.074ZM127.164 98.138V98.897H125.624V103.814H124.722V93.947H125.624V98.138H127.164Z" fill="#7A7A7A"/>
<path d="M169.515 97.709L169.141 98.435C167.612 98.171 166.127 97.313 165.489 96.125C164.873 97.324 163.388 98.171 161.848 98.435L161.485 97.709C163.278 97.445 165.016 96.257 165.016 94.849V94.299H165.962V94.849C165.962 96.224 167.722 97.445 169.515 97.709ZM169.944 99.502L169.955 100.25H165.918V103.825H165.016V100.25H161.034V99.502H169.944Z" fill="#7A7A7A"/>
<path d="M205.013 101.427V100.701H211.844V103.825H210.942V101.427H205.013ZM206.047 95.069V96.983H210.909V95.069H206.047ZM208.94 98.952H212.944V99.678H204.012V98.952H208.038V97.698H205.167V94.354H211.8V97.698H208.94V98.952Z" fill="#7A7A7A"/>
<path d="M249.003 100.899V102.956H253.964V100.899H249.003ZM248.123 103.682V100.173H254.855V103.682H248.123ZM254.558 98.105H255.977V98.831H247.012V98.105H253.645C253.931 96.873 253.931 95.971 253.931 95.201H248.156V94.475H254.822V95.201C254.822 95.971 254.822 96.873 254.558 98.105Z" fill="#7A7A7A"/>
<path d="M294.94 101.845H298.977V102.582H290.012V101.845H294.038V99.81H291.167V94.75H297.855V95.487H292.08V96.873H297.635V97.588H292.08V99.073H297.954V99.81H294.94V101.845Z" fill="#7A7A7A"/>
<g clip-path="url(#clip0_52_594)">
<path fill-rule="evenodd" clip-rule="evenodd" d="M-40.3986 71.9147L-40.8107 70.7806L38.5645 41.9395L38.9765 43.0735L-40.3986 71.9147ZM-38.7503 76.4511L-39.5745 74.1829L39.8007 45.3417L40.6248 47.6099L-38.7503 76.4511ZM-37.102 80.9875L-37.9262 78.7193L41.449 49.8781L42.2731 52.1463L-37.102 80.9875ZM-35.4537 85.5238L-36.2779 83.2556L43.0973 54.4144L43.9214 56.6826L-35.4537 85.5238ZM-33.8054 90.0602L-34.6296 87.792L44.7456 58.9508L45.5697 61.219L-33.8054 90.0602ZM-32.1571 94.5965L-32.9813 92.3284L46.3939 63.4872L47.218 65.7554L-32.1571 94.5965ZM-30.5088 99.1329L-31.333 96.8647L48.0422 68.0235L48.8663 70.2917L-30.5088 99.1329ZM-28.8605 103.669L-29.6847 101.401L49.6905 72.5599L50.5146 74.8281L-28.8605 103.669ZM-27.2122 108.206L-28.0364 105.937L51.3388 77.0963L52.1629 79.3644L-27.2122 108.206ZM-25.5639 112.742L-26.3881 110.474L52.9871 81.6326L53.8112 83.9008L-25.5639 112.742ZM-23.9156 117.278L-24.7398 115.01L54.6354 86.169L55.4595 88.4372L-23.9156 117.278ZM-22.2673 121.815L-23.0915 119.547L56.2837 90.7053L57.1078 92.9735L-22.2673 121.815ZM-20.619 126.351L-21.4432 124.083L57.932 95.2417L58.7561 97.5099L-20.619 126.351ZM-18.9707 130.887L-19.7949 128.619L59.5803 99.7781L60.4044 102.046L-18.9707 130.887ZM-17.3224 135.424L-18.1466 133.156L61.2286 104.314L62.0527 106.583L-17.3224 135.424ZM-15.6741 139.96L-16.4983 137.692L62.8769 108.851L63.701 111.119L-15.6741 139.96ZM-14.0258 144.497L-14.85 142.228L64.5252 113.387L65.3493 115.655L-14.0258 144.497ZM-12.3775 149.033L-13.2017 146.765L66.1735 117.924L66.9976 120.192L-12.3775 149.033ZM-10.7292 153.569L-11.5534 151.301L67.8218 122.46L68.6459 124.728L-10.7292 153.569ZM-9.08094 158.106L-9.90509 155.837L69.4701 126.996L70.2942 129.264L-9.08094 158.106ZM-7.43264 162.642L-8.25679 160.374L71.1184 131.533L71.9425 133.801L-7.43264 162.642ZM-5.78434 167.178L-6.60849 164.91L72.7667 136.069L73.5908 138.337L-5.78434 167.178ZM-4.13604 171.715L-4.96019 169.447L74.415 140.605L75.2391 142.874L-4.13604 171.715ZM-2.48774 176.251L-3.31189 173.983L76.0633 145.142L76.8874 147.41L-2.48774 176.251ZM-0.839437 180.787L-1.66359 178.519L77.7116 149.678L78.5357 151.946L-0.839437 180.787ZM0.808863 185.324L-0.015287 183.056L79.3599 154.214L80.184 156.483L0.808863 185.324ZM2.45716 189.86L1.63301 187.592L81.0082 158.751L81.8323 161.019L2.45716 189.86ZM4.10546 194.396L3.28131 192.128L82.6565 163.287L83.4806 165.555L4.10546 194.396ZM5.75376 198.933L4.92961 196.665L84.3048 167.823L85.1289 170.092L5.75376 198.933ZM7.40207 203.469L6.57791 201.201L85.9531 172.36L86.7772 174.628L7.40207 203.469ZM9.05036 208.006L8.22622 205.737L87.6014 176.896L88.4255 179.164L9.05036 208.006ZM10.6987 212.542L9.87451 210.274L89.2497 181.433L90.0738 183.701L10.6987 212.542ZM12.347 217.078L11.5228 214.81L90.898 185.969L91.7221 188.237L12.347 217.078ZM13.9953 221.615L13.1711 219.346L92.5463 190.505L93.3704 192.773L13.9953 221.615ZM15.6436 226.151L14.8194 223.883L94.1946 195.042L95.0187 197.31L15.6436 226.151ZM17.2919 230.687L16.4677 228.419L95.8429 199.578L96.667 201.846L17.2919 230.687ZM18.9402 235.224L18.116 232.956L97.4912 204.114L98.3153 206.383L18.9402 235.224ZM20.5885 239.76L19.7643 237.492L99.1395 208.651L99.9636 210.919L20.5885 239.76ZM22.2368 244.296L21.4126 242.028L100.788 213.187L101.612 215.455L22.2368 244.296ZM23.8851 248.833L23.0609 246.565L102.436 217.723L103.26 219.992L23.8851 248.833ZM25.5334 253.369L24.7092 251.101L104.084 222.26L104.909 224.528L25.5334 253.369ZM27.1817 257.906L26.3575 255.637L105.733 226.796L106.557 229.064L27.1817 257.906ZM28.83 262.442L28.0058 260.174L107.381 231.333L108.205 233.601L28.83 262.442ZM30.4783 266.978L29.6541 264.71L109.029 235.869L109.853 238.137L30.4783 266.978ZM32.1266 271.515L31.3024 269.246L110.678 240.405L111.502 242.673L32.1266 271.515ZM33.7749 276.051L32.9507 273.783L112.326 244.942L113.15 247.21L33.7749 276.051ZM35.4232 280.587L34.599 278.319L113.974 249.478L114.798 251.746L35.4232 280.587ZM37.0715 285.124L36.2473 282.856L115.622 254.014L116.447 256.283L37.0715 285.124ZM38.7198 289.66L37.8956 287.392L117.271 258.551L118.095 260.819L38.7198 289.66ZM40.3681 294.196L39.5439 291.928L118.919 263.087L119.743 265.355L40.3681 294.196ZM42.0164 298.733L41.1922 296.465L120.567 267.623L121.392 269.892L42.0164 298.733ZM43.6647 303.269L42.8405 301.001L122.216 272.16L123.04 274.428L43.6647 303.269ZM45.313 307.806L44.4888 305.537L123.864 276.696L124.688 278.964L45.313 307.806ZM46.9613 312.342L46.1371 310.074L125.512 281.233L126.336 283.501L46.9613 312.342ZM48.6096 316.878L47.7854 314.61L127.161 285.769L127.985 288.037L48.6096 316.878ZM49.8458 320.281L49.4337 319.146L128.809 290.305L129.221 291.439L49.8458 320.281Z" fill="#2B2A2F"/>
<path d="M37.9973 137.318V138H33.5093V137.56L35.8853 134.876C36.7873 133.853 37.1173 133.303 37.1173 132.588C37.1173 131.752 36.5013 131.136 35.6323 131.136C34.7303 131.136 34.0923 131.763 34.0923 132.687H33.3443C33.3443 131.389 34.3013 130.454 35.6653 130.454C36.9633 130.454 37.9203 131.323 37.9203 132.522C37.9203 133.325 37.6013 133.93 36.4573 135.206L34.6423 137.318H37.9973ZM44.3535 135.965C44.3535 137.252 43.2755 138.099 41.7465 138.099C40.2065 138.099 39.1395 137.252 39.1395 135.965C39.1395 134.997 39.7995 134.381 40.6465 134.128C39.9755 133.875 39.4475 133.248 39.4475 132.445C39.4475 131.257 40.4485 130.454 41.7465 130.454C43.0445 130.454 44.0345 131.257 44.0345 132.445C44.0345 133.248 43.5065 133.875 42.8465 134.128C43.6825 134.381 44.3535 134.997 44.3535 135.965ZM40.2395 132.467C40.2395 133.325 40.8555 133.842 41.7465 133.842C42.6265 133.842 43.2535 133.325 43.2535 132.467C43.2535 131.609 42.6265 131.081 41.7465 131.081C40.8555 131.081 40.2395 131.609 40.2395 132.467ZM39.9315 135.943C39.9315 136.9 40.6905 137.472 41.7465 137.472C42.7915 137.472 43.5615 136.9 43.5615 135.943C43.5615 134.997 42.7915 134.469 41.7465 134.469C40.6905 134.469 39.9315 134.997 39.9315 135.943Z" fill="#7A7A7A"/>
</g>
<rect x="15.5" y="120.5" width="39" height="39" rx="9.5" stroke="#2B2A2F"/>
<g clip-path="url(#clip1_52_594)">
<path fill-rule="evenodd" clip-rule="evenodd" d="M3.60137 71.9147L3.18929 70.7806L82.5645 41.9395L82.9765 43.0735L3.60137 71.9147ZM5.24967 76.4511L4.42552 74.1829L83.8007 45.3417L84.6248 47.6099L5.24967 76.4511ZM6.89797 80.9875L6.07382 78.7193L85.449 49.8781L86.2731 52.1463L6.89797 80.9875ZM8.54627 85.5238L7.72212 83.2556L87.0973 54.4144L87.9214 56.6826L8.54627 85.5238ZM10.1946 90.0602L9.37042 87.792L88.7456 58.9508L89.5697 61.219L10.1946 90.0602ZM11.8429 94.5965L11.0187 92.3284L90.3939 63.4872L91.218 65.7554L11.8429 94.5965ZM13.4912 99.1329L12.667 96.8647L92.0422 68.0235L92.8663 70.2917L13.4912 99.1329ZM15.1395 103.669L14.3153 101.401L93.6905 72.5599L94.5146 74.8281L15.1395 103.669ZM16.7878 108.206L15.9636 105.937L95.3388 77.0963L96.1629 79.3644L16.7878 108.206ZM18.4361 112.742L17.6119 110.474L96.9871 81.6326L97.8112 83.9008L18.4361 112.742ZM20.0844 117.278L19.2602 115.01L98.6354 86.169L99.4595 88.4372L20.0844 117.278ZM21.7327 121.815L20.9085 119.547L100.284 90.7053L101.108 92.9735L21.7327 121.815ZM23.381 126.351L22.5568 124.083L101.932 95.2417L102.756 97.5099L23.381 126.351ZM25.0293 130.887L24.2051 128.619L103.58 99.7781L104.404 102.046L25.0293 130.887ZM26.6776 135.424L25.8534 133.156L105.229 104.314L106.053 106.583L26.6776 135.424ZM28.3259 139.96L27.5017 137.692L106.877 108.851L107.701 111.119L28.3259 139.96ZM29.9742 144.497L29.15 142.228L108.525 113.387L109.349 115.655L29.9742 144.497ZM31.6225 149.033L30.7983 146.765L110.173 117.924L110.998 120.192L31.6225 149.033ZM33.2708 153.569L32.4466 151.301L111.822 122.46L112.646 124.728L33.2708 153.569ZM34.9191 158.106L34.0949 155.837L113.47 126.996L114.294 129.264L34.9191 158.106ZM36.5674 162.642L35.7432 160.374L115.118 131.533L115.943 133.801L36.5674 162.642ZM38.2157 167.178L37.3915 164.91L116.767 136.069L117.591 138.337L38.2157 167.178ZM39.864 171.715L39.0398 169.447L118.415 140.605L119.239 142.874L39.864 171.715ZM41.5123 176.251L40.6881 173.983L120.063 145.142L120.887 147.41L41.5123 176.251ZM43.1606 180.787L42.3364 178.519L121.712 149.678L122.536 151.946L43.1606 180.787ZM44.8089 185.324L43.9847 183.056L123.36 154.214L124.184 156.483L44.8089 185.324ZM46.4572 189.86L45.633 187.592L125.008 158.751L125.832 161.019L46.4572 189.86ZM48.1055 194.396L47.2813 192.128L126.656 163.287L127.481 165.555L48.1055 194.396ZM49.7538 198.933L48.9296 196.665L128.305 167.823L129.129 170.092L49.7538 198.933ZM51.4021 203.469L50.5779 201.201L129.953 172.36L130.777 174.628L51.4021 203.469ZM53.0504 208.006L52.2262 205.737L131.601 176.896L132.426 179.164L53.0504 208.006ZM54.6987 212.542L53.8745 210.274L133.25 181.433L134.074 183.701L54.6987 212.542ZM56.347 217.078L55.5228 214.81L134.898 185.969L135.722 188.237L56.347 217.078ZM57.9953 221.615L57.1711 219.346L136.546 190.505L137.37 192.773L57.9953 221.615ZM59.6436 226.151L58.8194 223.883L138.195 195.042L139.019 197.31L59.6436 226.151ZM61.2919 230.687L60.4677 228.419L139.843 199.578L140.667 201.846L61.2919 230.687ZM62.9402 235.224L62.116 232.956L141.491 204.114L142.315 206.383L62.9402 235.224ZM64.5885 239.76L63.7643 237.492L143.139 208.651L143.964 210.919L64.5885 239.76ZM66.2368 244.296L65.4126 242.028L144.788 213.187L145.612 215.455L66.2368 244.296ZM67.8851 248.833L67.0609 246.565L146.436 217.723L147.26 219.992L67.8851 248.833ZM69.5334 253.369L68.7092 251.101L148.084 222.26L148.909 224.528L69.5334 253.369ZM71.1817 257.906L70.3575 255.637L149.733 226.796L150.557 229.064L71.1817 257.906ZM72.83 262.442L72.0058 260.174L151.381 231.333L152.205 233.601L72.83 262.442ZM74.4783 266.978L73.6541 264.71L153.029 235.869L153.853 238.137L74.4783 266.978ZM76.1266 271.515L75.3024 269.246L154.678 240.405L155.502 242.673L76.1266 271.515ZM77.7749 276.051L76.9507 273.783L156.326 244.942L157.15 247.21L77.7749 276.051ZM79.4232 280.587L78.599 278.319L157.974 249.478L158.798 251.746L79.4232 280.587ZM81.0715 285.124L80.2473 282.856L159.622 254.014L160.447 256.283L81.0715 285.124ZM82.7198 289.66L81.8956 287.392L161.271 258.551L162.095 260.819L82.7198 289.66ZM84.3681 294.196L83.5439 291.928L162.919 263.087L163.743 265.355L84.3681 294.196ZM86.0164 298.733L85.1922 296.465L164.567 267.623L165.392 269.892L86.0164 298.733ZM87.6647 303.269L86.8405 301.001L166.216 272.16L167.04 274.428L87.6647 303.269ZM89.313 307.806L88.4888 305.537L167.864 276.696L168.688 278.964L89.313 307.806ZM90.9613 312.342L90.1371 310.074L169.512 281.233L170.336 283.501L90.9613 312.342ZM92.6096 316.878L91.7854 314.61L171.161 285.769L171.985 288.037L92.6096 316.878ZM93.8458 320.281L93.4337 319.146L172.809 290.305L173.221 291.439L93.8458 320.281Z" fill="#2B2A2F"/>
<path d="M82.4485 137.318V138H77.9605V137.56L80.3365 134.876C81.2385 133.853 81.5685 133.303 81.5685 132.588C81.5685 131.752 80.9525 131.136 80.0835 131.136C79.1815 131.136 78.5435 131.763 78.5435 132.687H77.7955C77.7955 131.389 78.7525 130.454 80.1165 130.454C81.4145 130.454 82.3715 131.323 82.3715 132.522C82.3715 133.325 82.0525 133.93 80.9085 135.206L79.0935 137.318H82.4485ZM86.0089 130.465C87.4939 130.465 88.5939 131.532 88.5939 132.896C88.5939 133.809 88.2309 134.381 87.6039 135.173L85.3709 138H84.4909L86.7239 135.162C86.4269 135.283 86.1189 135.327 85.8439 135.327C84.4579 135.327 83.4129 134.37 83.4129 132.918C83.4129 131.532 84.5129 130.465 86.0089 130.465ZM85.9979 131.103C84.9529 131.103 84.2049 131.862 84.2049 132.896C84.2049 134.007 84.9529 134.744 85.9979 134.744C87.0209 134.744 87.8019 134.106 87.8019 132.918C87.8019 131.862 87.0209 131.103 85.9979 131.103Z" fill="#7A7A7A"/>
</g>
<rect x="59.5" y="120.5" width="39" height="39" rx="9.5" stroke="#2B2A2F"/>
<g clip-path="url(#clip2_52_594)">
<path fill-rule="evenodd" clip-rule="evenodd" d="M47.6014 71.9147L47.1893 70.7806L126.564 41.9395L126.977 43.0735L47.6014 71.9147ZM49.2497 76.4511L48.4255 74.1829L127.801 45.3417L128.625 47.6099L49.2497 76.4511ZM50.898 80.9875L50.0738 78.7193L129.449 49.8781L130.273 52.1463L50.898 80.9875ZM52.5463 85.5238L51.7221 83.2556L131.097 54.4144L131.921 56.6826L52.5463 85.5238ZM54.1946 90.0602L53.3704 87.792L132.746 58.9508L133.57 61.219L54.1946 90.0602ZM55.8429 94.5965L55.0187 92.3284L134.394 63.4872L135.218 65.7554L55.8429 94.5965ZM57.4912 99.1329L56.667 96.8647L136.042 68.0235L136.866 70.2917L57.4912 99.1329ZM59.1395 103.669L58.3153 101.401L137.69 72.5599L138.515 74.8281L59.1395 103.669ZM60.7878 108.206L59.9636 105.937L139.339 77.0963L140.163 79.3644L60.7878 108.206ZM62.4361 112.742L61.6119 110.474L140.987 81.6326L141.811 83.9008L62.4361 112.742ZM64.0844 117.278L63.2602 115.01L142.635 86.169L143.46 88.4372L64.0844 117.278ZM65.7327 121.815L64.9085 119.547L144.284 90.7053L145.108 92.9735L65.7327 121.815ZM67.381 126.351L66.5568 124.083L145.932 95.2417L146.756 97.5099L67.381 126.351ZM69.0293 130.887L68.2051 128.619L147.58 99.7781L148.404 102.046L69.0293 130.887ZM70.6776 135.424L69.8534 133.156L149.229 104.314L150.053 106.583L70.6776 135.424ZM72.3259 139.96L71.5017 137.692L150.877 108.851L151.701 111.119L72.3259 139.96ZM73.9742 144.497L73.15 142.228L152.525 113.387L153.349 115.655L73.9742 144.497ZM75.6225 149.033L74.7983 146.765L154.173 117.924L154.998 120.192L75.6225 149.033ZM77.2708 153.569L76.4466 151.301L155.822 122.46L156.646 124.728L77.2708 153.569ZM78.9191 158.106L78.0949 155.837L157.47 126.996L158.294 129.264L78.9191 158.106ZM80.5674 162.642L79.7432 160.374L159.118 131.533L159.943 133.801L80.5674 162.642ZM82.2157 167.178L81.3915 164.91L160.767 136.069L161.591 138.337L82.2157 167.178ZM83.864 171.715L83.0398 169.447L162.415 140.605L163.239 142.874L83.864 171.715ZM85.5123 176.251L84.6881 173.983L164.063 145.142L164.887 147.41L85.5123 176.251ZM87.1606 180.787L86.3364 178.519L165.712 149.678L166.536 151.946L87.1606 180.787ZM88.8089 185.324L87.9847 183.056L167.36 154.214L168.184 156.483L88.8089 185.324ZM90.4572 189.86L89.633 187.592L169.008 158.751L169.832 161.019L90.4572 189.86ZM92.1055 194.396L91.2813 192.128L170.656 163.287L171.481 165.555L92.1055 194.396ZM93.7538 198.933L92.9296 196.665L172.305 167.823L173.129 170.092L93.7538 198.933ZM95.4021 203.469L94.5779 201.201L173.953 172.36L174.777 174.628L95.4021 203.469ZM97.0504 208.006L96.2262 205.737L175.601 176.896L176.426 179.164L97.0504 208.006ZM98.6987 212.542L97.8745 210.274L177.25 181.433L178.074 183.701L98.6987 212.542ZM100.347 217.078L99.5228 214.81L178.898 185.969L179.722 188.237L100.347 217.078ZM101.995 221.615L101.171 219.346L180.546 190.505L181.37 192.773L101.995 221.615ZM103.644 226.151L102.819 223.883L182.195 195.042L183.019 197.31L103.644 226.151ZM105.292 230.687L104.468 228.419L183.843 199.578L184.667 201.846L105.292 230.687ZM106.94 235.224L106.116 232.956L185.491 204.114L186.315 206.383L106.94 235.224ZM108.588 239.76L107.764 237.492L187.139 208.651L187.964 210.919L108.588 239.76ZM110.237 244.296L109.413 242.028L188.788 213.187L189.612 215.455L110.237 244.296ZM111.885 248.833L111.061 246.565L190.436 217.723L191.26 219.992L111.885 248.833ZM113.533 253.369L112.709 251.101L192.084 222.26L192.909 224.528L113.533 253.369ZM115.182 257.906L114.358 255.637L193.733 226.796L194.557 229.064L115.182 257.906ZM116.83 262.442L116.006 260.174L195.381 231.333L196.205 233.601L116.83 262.442ZM118.478 266.978L117.654 264.71L197.029 235.869L197.853 238.137L118.478 266.978ZM120.127 271.515L119.302 269.246L198.678 240.405L199.502 242.673L120.127 271.515ZM121.775 276.051L120.951 273.783L200.326 244.942L201.15 247.21L121.775 276.051ZM123.423 280.587L122.599 278.319L201.974 249.478L202.798 251.746L123.423 280.587ZM125.071 285.124L124.247 282.856L203.622 254.014L204.447 256.283L125.071 285.124ZM126.72 289.66L125.896 287.392L205.271 258.551L206.095 260.819L126.72 289.66ZM128.368 294.196L127.544 291.928L206.919 263.087L207.743 265.355L128.368 294.196ZM130.016 298.733L129.192 296.465L208.567 267.623L209.392 269.892L130.016 298.733ZM131.665 303.269L130.841 301.001L210.216 272.16L211.04 274.428L131.665 303.269ZM133.313 307.806L132.489 305.537L211.864 276.696L212.688 278.964L133.313 307.806ZM134.961 312.342L134.137 310.074L213.512 281.233L214.336 283.501L134.961 312.342ZM136.61 316.878L135.785 314.61L215.161 285.769L215.985 288.037L136.61 316.878ZM137.846 320.281L137.434 319.146L216.809 290.305L217.221 291.439L137.846 320.281Z" fill="#2B2A2F"/>
<path d="M123.427 138.099C121.953 138.099 120.941 137.23 120.908 135.943H121.656C121.7 136.878 122.393 137.472 123.427 137.472C124.494 137.472 125.143 136.889 125.143 135.954C125.143 135.063 124.417 134.491 123.273 134.491H122.536V133.853H123.251C124.164 133.853 124.802 133.27 124.802 132.434C124.802 131.631 124.208 131.081 123.361 131.081C122.481 131.081 121.898 131.631 121.854 132.489H121.117C121.15 131.323 122.118 130.454 123.383 130.454C124.703 130.454 125.594 131.257 125.594 132.401C125.594 133.171 125.132 133.787 124.318 134.128C125.341 134.381 125.935 135.041 125.935 135.943C125.935 137.219 124.923 138.099 123.427 138.099ZM127.159 134.293C127.159 131.829 128.105 130.454 129.799 130.454C131.482 130.454 132.439 131.829 132.439 134.293C132.439 136.757 131.504 138.11 129.799 138.11C128.083 138.11 127.159 136.757 127.159 134.293ZM127.951 134.293C127.951 136.339 128.578 137.428 129.799 137.428C130.998 137.428 131.647 136.35 131.647 134.293C131.647 132.225 130.998 131.136 129.799 131.136C128.6 131.136 127.951 132.214 127.951 134.293Z" fill="#7A7A7A"/>
</g>
<rect x="103.5" y="120.5" width="39" height="39" rx="9.5" stroke="#2B2A2F"/>
<rect x="147" y="120" width="40" height="40" rx="12" fill="#2B2A2F"/>
<path d="M167.561 134.293C167.561 131.829 168.507 130.454 170.201 130.454C171.884 130.454 172.841 131.829 172.841 134.293C172.841 136.757 171.906 138.11 170.201 138.11C168.485 138.11 167.561 136.757 167.561 134.293ZM168.353 134.293C168.353 136.339 168.98 137.428 170.201 137.428C171.4 137.428 172.049 136.35 172.049 134.293C172.049 132.225 171.4 131.136 170.201 131.136C169.002 131.136 168.353 132.214 168.353 134.293ZM175.79 138H175.031V131.224H173.568V130.564H175.79V138Z" fill="#CCCCCC"/>
<circle cx="158" cy="153" r="3" fill="#2B2A2F"/>
<path d="M191 132C191 125.373 196.373 120 203 120H219C225.627 120 231 125.373 231 132V148C231 154.627 225.627 160 219 160H203C196.373 160 191 154.627 191 148V132Z" fill="#2B2A2F"/>
<path d="M210.061 134.293C210.061 131.829 211.007 130.454 212.701 130.454C214.384 130.454 215.341 131.829 215.341 134.293C215.341 136.757 214.406 138.11 212.701 138.11C210.985 138.11 210.061 136.757 210.061 134.293ZM210.853 134.293C210.853 136.339 211.48 137.428 212.701 137.428C213.9 137.428 214.549 136.35 214.549 134.293C214.549 132.225 213.9 131.136 212.701 131.136C211.502 131.136 210.853 132.214 210.853 134.293ZM220.995 137.318V138H216.507V137.56L218.883 134.876C219.785 133.853 220.115 133.303 220.115 132.588C220.115 131.752 219.499 131.136 218.63 131.136C217.728 131.136 217.09 131.763 217.09 132.687H216.342C216.342 131.389 217.299 130.454 218.663 130.454C219.961 130.454 220.918 131.323 220.918 132.522C220.918 133.325 220.599 133.93 219.455 135.206L217.64 137.318H220.995Z" fill="#CCCCCC"/>
<circle cx="202" cy="153" r="3" fill="#2B2A2F"/>
<rect x="235" y="120" width="40" height="40" rx="12" fill="#2B2A2F"/>
<path d="M254.061 134.293C254.061 131.829 255.007 130.454 256.701 130.454C258.384 130.454 259.341 131.829 259.341 134.293C259.341 136.757 258.406 138.11 256.701 138.11C254.985 138.11 254.061 136.757 254.061 134.293ZM254.853 134.293C254.853 136.339 255.48 137.428 256.701 137.428C257.9 137.428 258.549 136.35 258.549 134.293C258.549 132.225 257.9 131.136 256.701 131.136C255.502 131.136 254.853 132.214 254.853 134.293ZM263.026 138.099C261.552 138.099 260.54 137.23 260.507 135.943H261.255C261.299 136.878 261.992 137.472 263.026 137.472C264.093 137.472 264.742 136.889 264.742 135.954C264.742 135.063 264.016 134.491 262.872 134.491H262.135V133.853H262.85C263.763 133.853 264.401 133.27 264.401 132.434C264.401 131.631 263.807 131.081 262.96 131.081C262.08 131.081 261.497 131.631 261.453 132.489H260.716C260.749 131.323 261.717 130.454 262.982 130.454C264.302 130.454 265.193 131.257 265.193 132.401C265.193 133.171 264.731 133.787 263.917 134.128C264.94 134.381 265.534 135.041 265.534 135.943C265.534 137.219 264.522 138.099 263.026 138.099Z" fill="#CCCCCC"/>
<circle cx="246" cy="153" r="3" fill="#2B2A2F"/>
<path d="M279 132C279 125.373 284.373 120 291 120H307C313.627 120 319 125.373 319 132V148C319 154.627 313.627 160 307 160H291C284.373 160 279 154.627 279 148V132Z" fill="#2B2A2F"/>
<path d="M298.061 134.293C298.061 131.829 299.007 130.454 300.701 130.454C302.384 130.454 303.341 131.829 303.341 134.293C303.341 136.757 302.406 138.11 300.701 138.11C298.985 138.11 298.061 136.757 298.061 134.293ZM298.853 134.293C298.853 136.339 299.48 137.428 300.701 137.428C301.9 137.428 302.549 136.35 302.549 134.293C302.549 132.225 301.9 131.136 300.701 131.136C299.502 131.136 298.853 132.214 298.853 134.293ZM309.6 136.229H308.599V138H307.84V136.229H304.221V135.712L308.06 130.564H308.599V135.558H309.6V136.229ZM305.112 135.558H307.84V131.818L305.112 135.558Z" fill="#CCCCCC"/>
<circle cx="290" cy="153" r="3" fill="#2B2A2F"/>
<path d="M15 180C15 173.373 20.3726 168 27 168H43C49.6274 168 55 173.373 55 180V196C55 202.627 49.6274 208 43 208H27C20.3726 208 15 202.627 15 196V180Z" fill="#2B2A2F"/>
<path d="M34.061 182.293C34.061 179.829 35.007 178.454 36.701 178.454C38.384 178.454 39.341 179.829 39.341 182.293C39.341 184.757 38.406 186.11 36.701 186.11C34.985 186.11 34.061 184.757 34.061 182.293ZM34.853 182.293C34.853 184.339 35.48 185.428 36.701 185.428C37.9 185.428 38.549 184.35 38.549 182.293C38.549 180.225 37.9 179.136 36.701 179.136C35.502 179.136 34.853 180.214 34.853 182.293ZM42.8393 186.11C41.4863 186.11 40.4523 185.197 40.4083 183.932H41.1563C41.2223 184.845 41.9043 185.428 42.8393 185.428C43.9723 185.428 44.6213 184.724 44.6213 183.679C44.6213 182.744 43.9173 181.996 42.8613 181.996C42.1463 181.996 41.5963 182.304 41.2333 182.876L40.6393 182.7L41.2883 178.564H44.9843V179.235H41.8383L41.4313 181.919C41.8823 181.512 42.3883 181.336 42.9603 181.336C44.4783 181.336 45.4023 182.392 45.4023 183.668C45.4023 185.065 44.4343 186.11 42.8393 186.11Z" fill="#CCCCCC"/>
<circle cx="26" cy="201" r="3" fill="#2B2A2F"/>
<rect x="59" y="168" width="40" height="40" rx="12" fill="#2B2A2F"/>
<path d="M78.061 182.293C78.061 179.829 79.007 178.454 80.701 178.454C82.384 178.454 83.341 179.829 83.341 182.293C83.341 184.757 82.406 186.11 80.701 186.11C78.985 186.11 78.061 184.757 78.061 182.293ZM78.853 182.293C78.853 184.339 79.48 185.428 80.701 185.428C81.9 185.428 82.549 184.35 82.549 182.293C82.549 180.225 81.9 179.136 80.701 179.136C79.502 179.136 78.853 180.214 78.853 182.293ZM86.8943 186.099C85.4093 186.099 84.3093 185.032 84.3093 183.668C84.3093 182.7 84.7053 182.117 85.2883 181.391L87.5323 178.564H88.4013L86.1683 181.391C86.4763 181.281 86.7733 181.226 87.0483 181.226C88.4343 181.226 89.4903 182.183 89.4903 183.646C89.4903 185.032 88.3903 186.099 86.8943 186.099ZM86.9053 185.461C87.9283 185.461 88.6983 184.702 88.6983 183.668C88.6983 182.557 87.9283 181.82 86.9053 181.82C85.8713 181.82 85.1013 182.458 85.1013 183.646C85.1013 184.702 85.8713 185.461 86.9053 185.461Z" fill="#CCCCCC"/>
<circle cx="70" cy="201" r="3" fill="#2B2A2F"/>
<path d="M103 180C103 173.373 108.373 168 115 168H131C137.627 168 143 173.373 143 180V196C143 202.627 137.627 208 131 208H115C108.373 208 103 202.627 103 196V180Z" fill="#2B2A2F"/>
<path d="M122.561 182.293C122.561 179.829 123.507 178.454 125.201 178.454C126.884 178.454 127.841 179.829 127.841 182.293C127.841 184.757 126.906 186.11 125.201 186.11C123.485 186.11 122.561 184.757 122.561 182.293ZM123.353 182.293C123.353 184.339 123.98 185.428 125.201 185.428C126.4 185.428 127.049 184.35 127.049 182.293C127.049 180.225 126.4 179.136 125.201 179.136C124.002 179.136 123.353 180.214 123.353 182.293ZM133.409 179.004L130.439 186H129.614L132.551 179.246H128.558V178.564H133.409V179.004Z" fill="#CCCCCC"/>
<circle cx="114" cy="201" r="3" fill="#2B2A2F"/>
<rect x="147" y="168" width="40" height="40" rx="12" fill="#2B2A2F"/>
<path d="M166.061 182.293C166.061 179.829 167.007 178.454 168.701 178.454C170.384 178.454 171.341 179.829 171.341 182.293C171.341 184.757 170.406 186.11 168.701 186.11C166.985 186.11 166.061 184.757 166.061 182.293ZM166.853 182.293C166.853 184.339 167.48 185.428 168.701 185.428C169.9 185.428 170.549 184.35 170.549 182.293C170.549 180.225 169.9 179.136 168.701 179.136C167.502 179.136 166.853 180.214 166.853 182.293ZM177.776 183.965C177.776 185.252 176.698 186.099 175.169 186.099C173.629 186.099 172.562 185.252 172.562 183.965C172.562 182.997 173.222 182.381 174.069 182.128C173.398 181.875 172.87 181.248 172.87 180.445C172.87 179.257 173.871 178.454 175.169 178.454C176.467 178.454 177.457 179.257 177.457 180.445C177.457 181.248 176.929 181.875 176.269 182.128C177.105 182.381 177.776 182.997 177.776 183.965ZM173.662 180.467C173.662 181.325 174.278 181.842 175.169 181.842C176.049 181.842 176.676 181.325 176.676 180.467C176.676 179.609 176.049 179.081 175.169 179.081C174.278 179.081 173.662 179.609 173.662 180.467ZM173.354 183.943C173.354 184.9 174.113 185.472 175.169 185.472C176.214 185.472 176.984 184.9 176.984 183.943C176.984 182.997 176.214 182.469 175.169 182.469C174.113 182.469 173.354 182.997 173.354 183.943Z" fill="#CCCCCC"/>
<circle cx="158" cy="201" r="3" fill="#2B2A2F"/>
<path d="M191 180C191 173.373 196.373 168 203 168H219C225.627 168 231 173.373 231 180V196C231 202.627 225.627 208 219 208H203C196.373 208 191 202.627 191 196V180Z" fill="#2B2A2F"/>
<path d="M210.061 182.293C210.061 179.829 211.007 178.454 212.701 178.454C214.384 178.454 215.341 179.829 215.341 182.293C215.341 184.757 214.406 186.11 212.701 186.11C210.985 186.11 210.061 184.757 210.061 182.293ZM210.853 182.293C210.853 184.339 211.48 185.428 212.701 185.428C213.9 185.428 214.549 184.35 214.549 182.293C214.549 180.225 213.9 179.136 212.701 179.136C211.502 179.136 210.853 180.214 210.853 182.293ZM218.905 178.465C220.39 178.465 221.49 179.532 221.49 180.896C221.49 181.809 221.127 182.381 220.5 183.173L218.267 186H217.387L219.62 183.162C219.323 183.283 219.015 183.327 218.74 183.327C217.354 183.327 216.309 182.37 216.309 180.918C216.309 179.532 217.409 178.465 218.905 178.465ZM218.894 179.103C217.849 179.103 217.101 179.862 217.101 180.896C217.101 182.007 217.849 182.744 218.894 182.744C219.917 182.744 220.698 182.106 220.698 180.918C220.698 179.862 219.917 179.103 218.894 179.103Z" fill="#CCCCCC"/>
<circle cx="202" cy="201" r="3" fill="#2B2A2F"/>
<rect x="235" y="168" width="40" height="40" rx="12" fill="#2B2A2F"/>
<path d="M257.42 186H256.661V179.224H255.198V178.564H257.42V186ZM258.923 182.293C258.923 179.829 259.869 178.454 261.563 178.454C263.246 178.454 264.203 179.829 264.203 182.293C264.203 184.757 263.268 186.11 261.563 186.11C259.847 186.11 258.923 184.757 258.923 182.293ZM259.715 182.293C259.715 184.339 260.342 185.428 261.563 185.428C262.762 185.428 263.411 184.35 263.411 182.293C263.411 180.225 262.762 179.136 261.563 179.136C260.364 179.136 259.715 180.214 259.715 182.293Z" fill="#CCCCCC"/>
<circle cx="246" cy="201" r="3" fill="#2B2A2F"/>
<path d="M279 180C279 173.373 284.373 168 291 168H307C313.627 168 319 173.373 319 180V196C319 202.627 313.627 208 307 208H291C284.373 208 279 202.627 279 196V180Z" fill="#2B2A2F"/>
<path d="M302.92 186H302.161V179.224H300.698V178.564H302.92V186ZM306.282 186H305.523V179.224H304.06V178.564H306.282V186Z" fill="#CCCCCC"/>
<circle cx="290" cy="201" r="3" fill="#2B2A2F"/>
<path d="M15 228C15 221.373 20.3726 216 27 216H43C49.6274 216 55 221.373 55 228V244C55 250.627 49.6274 256 43 256H27C20.3726 256 15 250.627 15 244V228Z" fill="#2B2A2F"/>
<path d="M37.92 234H37.161V227.224H35.698V226.564H37.92V234ZM43.9553 233.318V234H39.4673V233.56L41.8433 230.876C42.7453 229.853 43.0753 229.303 43.0753 228.588C43.0753 227.752 42.4593 227.136 41.5903 227.136C40.6883 227.136 40.0503 227.763 40.0503 228.687H39.3023C39.3023 227.389 40.2593 226.454 41.6233 226.454C42.9213 226.454 43.8783 227.323 43.8783 228.522C43.8783 229.325 43.5593 229.93 42.4153 231.206L40.6003 233.318H43.9553Z" fill="#CCCCCC"/>
<circle cx="26" cy="249" r="3" fill="#2B2A2F"/>
<rect x="59" y="216" width="40" height="40" rx="12" fill="#2B2A2F"/>
<path d="M81.42 234H80.661V227.224H79.198V226.564H81.42V234ZM85.3252 234.099C83.8512 234.099 82.8392 233.23 82.8062 231.943H83.5542C83.5982 232.878 84.2912 233.472 85.3252 233.472C86.3922 233.472 87.0412 232.889 87.0412 231.954C87.0412 231.063 86.3152 230.491 85.1712 230.491H84.4342V229.853H85.1492C86.0622 229.853 86.7002 229.27 86.7002 228.434C86.7002 227.631 86.1062 227.081 85.2592 227.081C84.3792 227.081 83.7962 227.631 83.7522 228.489H83.0152C83.0482 227.323 84.0162 226.454 85.2812 226.454C86.6012 226.454 87.4922 227.257 87.4922 228.401C87.4922 229.171 87.0302 229.787 86.2162 230.128C87.2392 230.381 87.8332 231.041 87.8332 231.943C87.8332 233.219 86.8212 234.099 85.3252 234.099Z" fill="#CCCCCC"/>
<circle cx="70" cy="249" r="3" fill="#2B2A2F"/>
<path d="M103 228C103 221.373 108.373 216 115 216H131C137.627 216 143 221.373 143 228V244C143 250.627 137.627 256 131 256H115C108.373 256 103 250.627 103 244V228Z" fill="#2B2A2F"/>
<path d="M125.42 234H124.661V227.224H123.198V226.564H125.42V234ZM131.985 232.229H130.984V234H130.225V232.229H126.606V231.712L130.445 226.564H130.984V231.558H131.985V232.229ZM127.497 231.558H130.225V227.818L127.497 231.558Z" fill="#CCCCCC"/>
<circle cx="114" cy="249" r="3" fill="#2B2A2F"/>
<path d="M147 228C147 221.373 152.373 216 159 216H175C181.627 216 187 221.373 187 228V244C187 250.627 181.627 256 175 256H159C152.373 256 147 250.627 147 244V228Z" fill="#D4F120"/>
<path d="M169.646 234H168.117V227.884H166.709V226.564H169.646V234ZM173.61 234.11C172.026 234.11 170.827 233.12 170.783 231.734H172.312C172.4 232.383 172.906 232.746 173.599 232.746C174.501 232.746 174.842 232.174 174.842 231.569C174.842 230.986 174.457 230.392 173.555 230.392C172.961 230.392 172.521 230.634 172.29 231.14L171.036 230.733L171.685 226.564H175.986V227.928H172.796L172.565 229.446C172.939 229.204 173.368 229.094 173.808 229.094C175.579 229.094 176.426 230.315 176.426 231.569C176.426 232.845 175.48 234.11 173.61 234.11Z" fill="#1B1A1F"/>
<circle cx="158" cy="248" r="3" fill="#D4F120"/>
<rect x="191" y="216" width="40" height="40" rx="12" fill="#2B2A2F"/>
<path d="M213.42 234H212.661V227.224H211.198V226.564H213.42V234ZM217.354 234.099C215.869 234.099 214.769 233.032 214.769 231.668C214.769 230.7 215.165 230.117 215.748 229.391L217.992 226.564H218.861L216.628 229.391C216.936 229.281 217.233 229.226 217.508 229.226C218.894 229.226 219.95 230.183 219.95 231.646C219.95 233.032 218.85 234.099 217.354 234.099ZM217.365 233.461C218.388 233.461 219.158 232.702 219.158 231.668C219.158 230.557 218.388 229.82 217.365 229.82C216.331 229.82 215.561 230.458 215.561 231.646C215.561 232.702 216.331 233.461 217.365 233.461Z" fill="#CCCCCC"/>
<circle cx="202" cy="249" r="3" fill="#2B2A2F"/>
<rect x="235" y="216" width="40" height="40" rx="12" fill="#2B2A2F"/>
<path d="M257.92 234H257.161V227.224H255.698V226.564H257.92V234ZM263.847 227.004L260.877 234H260.052L262.989 227.246H258.996V226.564H263.847V227.004Z" fill="#CCCCCC"/>
<circle cx="246" cy="249" r="3" fill="#2B2A2F"/>
<path d="M279 228C279 221.373 284.373 216 291 216H307C313.627 216 319 221.373 319 228V244C319 250.627 313.627 256 307 256H291C284.373 256 279 250.627 279 244V228Z" fill="#2B2A2F"/>
<path d="M301.42 234H300.661V227.224H299.198V226.564H301.42V234ZM308.161 231.965C308.161 233.252 307.083 234.099 305.554 234.099C304.014 234.099 302.947 233.252 302.947 231.965C302.947 230.997 303.607 230.381 304.454 230.128C303.783 229.875 303.255 229.248 303.255 228.445C303.255 227.257 304.256 226.454 305.554 226.454C306.852 226.454 307.842 227.257 307.842 228.445C307.842 229.248 307.314 229.875 306.654 230.128C307.49 230.381 308.161 230.997 308.161 231.965ZM304.047 228.467C304.047 229.325 304.663 229.842 305.554 229.842C306.434 229.842 307.061 229.325 307.061 228.467C307.061 227.609 306.434 227.081 305.554 227.081C304.663 227.081 304.047 227.609 304.047 228.467ZM303.739 231.943C303.739 232.9 304.498 233.472 305.554 233.472C306.599 233.472 307.369 232.9 307.369 231.943C307.369 230.997 306.599 230.469 305.554 230.469C304.498 230.469 303.739 230.997 303.739 231.943Z" fill="#CCCCCC"/>
<circle cx="290" cy="249" r="3" fill="#2B2A2F"/>
<path d="M15 276C15 269.373 20.3726 264 27 264H43C49.6274 264 55 269.373 55 276V292C55 298.627 49.6274 304 43 304H27C20.3726 304 15 298.627 15 292V276Z" fill="#2B2A2F"/>
<path d="M37.42 282H36.661V275.224H35.198V274.564H37.42V282ZM41.3653 274.465C42.8503 274.465 43.9503 275.532 43.9503 276.896C43.9503 277.809 43.5873 278.381 42.9603 279.173L40.7273 282H39.8473L42.0803 279.162C41.7833 279.283 41.4753 279.327 41.2003 279.327C39.8143 279.327 38.7693 278.37 38.7693 276.918C38.7693 275.532 39.8693 274.465 41.3653 274.465ZM41.3543 275.103C40.3093 275.103 39.5613 275.862 39.5613 276.896C39.5613 278.007 40.3093 278.744 41.3543 278.744C42.3773 278.744 43.1583 278.106 43.1583 276.918C43.1583 275.862 42.3773 275.103 41.3543 275.103Z" fill="#CCCCCC"/>
<circle cx="26" cy="297" r="3" fill="#2B2A2F"/>
<rect x="59" y="264" width="40" height="40" rx="12" fill="#2B2A2F"/>
<path d="M82.593 281.318V282H78.105V281.56L80.481 278.876C81.383 277.853 81.713 277.303 81.713 276.588C81.713 275.752 81.097 275.136 80.228 275.136C79.326 275.136 78.688 275.763 78.688 276.687H77.94C77.94 275.389 78.897 274.454 80.261 274.454C81.559 274.454 82.516 275.323 82.516 276.522C82.516 277.325 82.197 277.93 81.053 279.206L79.238 281.318H82.593ZM83.6792 278.293C83.6792 275.829 84.6252 274.454 86.3192 274.454C88.0022 274.454 88.9592 275.829 88.9592 278.293C88.9592 280.757 88.0242 282.11 86.3192 282.11C84.6032 282.11 83.6792 280.757 83.6792 278.293ZM84.4712 278.293C84.4712 280.339 85.0982 281.428 86.3192 281.428C87.5182 281.428 88.1672 280.35 88.1672 278.293C88.1672 276.225 87.5182 275.136 86.3192 275.136C85.1202 275.136 84.4712 276.214 84.4712 278.293Z" fill="#CCCCCC"/>
<circle cx="70" cy="297" r="3" fill="#2B2A2F"/>
<rect x="103" y="264" width="40" height="40" rx="12" fill="#2B2A2F"/>
<path d="M128.593 281.318V282H124.105V281.56L126.481 278.876C127.383 277.853 127.713 277.303 127.713 276.588C127.713 275.752 127.097 275.136 126.228 275.136C125.326 275.136 124.688 275.763 124.688 276.687H123.94C123.94 275.389 124.897 274.454 126.261 274.454C127.559 274.454 128.516 275.323 128.516 276.522C128.516 277.325 128.197 277.93 127.053 279.206L125.238 281.318H128.593ZM131.538 282H130.779V275.224H129.316V274.564H131.538V282Z" fill="#CCCCCC"/>
<circle cx="114" cy="297" r="3" fill="#2B2A2F"/>
<rect x="147" y="264" width="40" height="40" rx="12" fill="#2B2A2F"/>
<path d="M171.093 281.318V282H166.605V281.56L168.981 278.876C169.883 277.853 170.213 277.303 170.213 276.588C170.213 275.752 169.597 275.136 168.728 275.136C167.826 275.136 167.188 275.763 167.188 276.687H166.44C166.44 275.389 167.397 274.454 168.761 274.454C170.059 274.454 171.016 275.323 171.016 276.522C171.016 277.325 170.697 277.93 169.553 279.206L167.738 281.318H171.093ZM176.711 281.318V282H172.223V281.56L174.599 278.876C175.501 277.853 175.831 277.303 175.831 276.588C175.831 275.752 175.215 275.136 174.346 275.136C173.444 275.136 172.806 275.763 172.806 276.687H172.058C172.058 275.389 173.015 274.454 174.379 274.454C175.677 274.454 176.634 275.323 176.634 276.522C176.634 277.325 176.315 277.93 175.171 279.206L173.356 281.318H176.711Z" fill="#CCCCCC"/>
<circle cx="158" cy="297" r="3" fill="#2B2A2F"/>
<path d="M191 276C191 269.373 196.373 264 203 264H219C225.627 264 231 269.373 231 276V292C231 298.627 225.627 304 219 304H203C196.373 304 191 298.627 191 292V276Z" fill="#2B2A2F"/>
<path d="M215.093 281.318V282H210.605V281.56L212.981 278.876C213.883 277.853 214.213 277.303 214.213 276.588C214.213 275.752 213.597 275.136 212.728 275.136C211.826 275.136 211.188 275.763 211.188 276.687H210.44C210.44 275.389 211.397 274.454 212.761 274.454C214.059 274.454 215.016 275.323 215.016 276.522C215.016 277.325 214.697 277.93 213.553 279.206L211.738 281.318H215.093ZM218.667 282.099C217.193 282.099 216.181 281.23 216.148 279.943H216.896C216.94 280.878 217.633 281.472 218.667 281.472C219.734 281.472 220.383 280.889 220.383 279.954C220.383 279.063 219.657 278.491 218.513 278.491H217.776V277.853H218.491C219.404 277.853 220.042 277.27 220.042 276.434C220.042 275.631 219.448 275.081 218.601 275.081C217.721 275.081 217.138 275.631 217.094 276.489H216.357C216.39 275.323 217.358 274.454 218.623 274.454C219.943 274.454 220.834 275.257 220.834 276.401C220.834 277.171 220.372 277.787 219.558 278.128C220.581 278.381 221.175 279.041 221.175 279.943C221.175 281.219 220.163 282.099 218.667 282.099Z" fill="#CCCCCC"/>
<circle cx="202" cy="297" r="3" fill="#2B2A2F"/>
<rect x="235" y="264" width="40" height="40" rx="12" fill="#2B2A2F"/>
<path d="M259.093 281.318V282H254.605V281.56L256.981 278.876C257.883 277.853 258.213 277.303 258.213 276.588C258.213 275.752 257.597 275.136 256.728 275.136C255.826 275.136 255.188 275.763 255.188 276.687H254.44C254.44 275.389 255.397 274.454 256.761 274.454C258.059 274.454 259.016 275.323 259.016 276.522C259.016 277.325 258.697 277.93 257.553 279.206L255.738 281.318H259.093ZM265.026 280.229H264.025V282H263.266V280.229H259.647V279.712L263.486 274.564H264.025V279.558H265.026V280.229ZM260.538 279.558H263.266V275.818L260.538 279.558Z" fill="#CCCCCC"/>
<circle cx="246" cy="297" r="3" fill="#2B2A2F"/>
<path d="M279 276C279 269.373 284.373 264 291 264H307C313.627 264 319 269.373 319 276V292C319 298.627 313.627 304 307 304H291C284.373 304 279 298.627 279 292V276Z" fill="#2B2A2F"/>
<path d="M303.093 281.318V282H298.605V281.56L300.981 278.876C301.883 277.853 302.213 277.303 302.213 276.588C302.213 275.752 301.597 275.136 300.728 275.136C299.826 275.136 299.188 275.763 299.188 276.687H298.44C298.44 275.389 299.397 274.454 300.761 274.454C302.059 274.454 303.016 275.323 303.016 276.522C303.016 277.325 302.697 277.93 301.553 279.206L299.738 281.318H303.093ZM306.46 282.099C304.975 282.099 303.875 281.032 303.875 279.668C303.875 278.7 304.271 278.117 304.854 277.391L307.098 274.564H307.967L305.734 277.391C306.042 277.281 306.339 277.226 306.614 277.226C308 277.226 309.056 278.183 309.056 279.646C309.056 281.032 307.956 282.099 306.46 282.099ZM306.471 281.461C307.494 281.461 308.264 280.702 308.264 279.668C308.264 278.557 307.494 277.82 306.471 277.82C305.437 277.82 304.667 278.458 304.667 279.646C304.667 280.702 305.437 281.461 306.471 281.461Z" fill="#CCCCCC"/>
<circle cx="290" cy="297" r="3" fill="#2B2A2F"/>
<rect x="15" y="312" width="40" height="40" rx="12" fill="#2B2A2F"/>
<path d="M39.593 329.318V330H35.105V329.56L37.481 326.876C38.383 325.853 38.713 325.303 38.713 324.588C38.713 323.752 38.097 323.136 37.228 323.136C36.326 323.136 35.688 323.763 35.688 324.687H34.94C34.94 323.389 35.897 322.454 37.261 322.454C38.559 322.454 39.516 323.323 39.516 324.522C39.516 325.325 39.197 325.93 38.053 327.206L36.238 329.318H39.593ZM45.103 323.004L42.133 330H41.308L44.245 323.246H40.252V322.564H45.103V323.004Z" fill="#CCCCCC"/>
<circle cx="26" cy="345" r="3" fill="#2B2A2F"/>
<rect x="59" y="312" width="40" height="40" rx="12" fill="#2B2A2F"/>
<path d="M82.593 329.318V330H78.105V329.56L80.481 326.876C81.383 325.853 81.713 325.303 81.713 324.588C81.713 323.752 81.097 323.136 80.228 323.136C79.326 323.136 78.688 323.763 78.688 324.687H77.94C77.94 323.389 78.897 322.454 80.261 322.454C81.559 322.454 82.516 323.323 82.516 324.522C82.516 325.325 82.197 325.93 81.053 327.206L79.238 329.318H82.593ZM88.9492 327.965C88.9492 329.252 87.8712 330.099 86.3422 330.099C84.8022 330.099 83.7352 329.252 83.7352 327.965C83.7352 326.997 84.3952 326.381 85.2422 326.128C84.5712 325.875 84.0432 325.248 84.0432 324.445C84.0432 323.257 85.0442 322.454 86.3422 322.454C87.6402 322.454 88.6302 323.257 88.6302 324.445C88.6302 325.248 88.1022 325.875 87.4422 326.128C88.2782 326.381 88.9492 326.997 88.9492 327.965ZM84.8352 324.467C84.8352 325.325 85.4512 325.842 86.3422 325.842C87.2222 325.842 87.8492 325.325 87.8492 324.467C87.8492 323.609 87.2222 323.081 86.3422 323.081C85.4512 323.081 84.8352 323.609 84.8352 324.467ZM84.5272 327.943C84.5272 328.9 85.2862 329.472 86.3422 329.472C87.3872 329.472 88.1572 328.9 88.1572 327.943C88.1572 326.997 87.3872 326.469 86.3422 326.469C85.2862 326.469 84.5272 326.997 84.5272 327.943Z" fill="#CCCCCC"/>
<circle cx="70" cy="345" r="3" fill="#2B2A2F"/>
<rect x="103" y="312" width="40" height="40" rx="12" fill="#2B2A2F"/>
<path d="M127.093 329.318V330H122.605V329.56L124.981 326.876C125.883 325.853 126.213 325.303 126.213 324.588C126.213 323.752 125.597 323.136 124.728 323.136C123.826 323.136 123.188 323.763 123.188 324.687H122.44C122.44 323.389 123.397 322.454 124.761 322.454C126.059 322.454 127.016 323.323 127.016 324.522C127.016 325.325 126.697 325.93 125.553 327.206L123.738 329.318H127.093ZM130.653 322.465C132.138 322.465 133.238 323.532 133.238 324.896C133.238 325.809 132.875 326.381 132.248 327.173L130.015 330H129.135L131.368 327.162C131.071 327.283 130.763 327.327 130.488 327.327C129.102 327.327 128.057 326.37 128.057 324.918C128.057 323.532 129.157 322.465 130.653 322.465ZM130.642 323.103C129.597 323.103 128.849 323.862 128.849 324.896C128.849 326.007 129.597 326.744 130.642 326.744C131.665 326.744 132.446 326.106 132.446 324.918C132.446 323.862 131.665 323.103 130.642 323.103Z" fill="#CCCCCC"/>
<circle cx="114" cy="345" r="3" fill="#2B2A2F"/>
<rect x="147" y="312" width="40" height="40" rx="12" fill="#2B2A2F"/>
<path d="M168.624 330.099C167.15 330.099 166.138 329.23 166.105 327.943H166.853C166.897 328.878 167.59 329.472 168.624 329.472C169.691 329.472 170.34 328.889 170.34 327.954C170.34 327.063 169.614 326.491 168.47 326.491H167.733V325.853H168.448C169.361 325.853 169.999 325.27 169.999 324.434C169.999 323.631 169.405 323.081 168.558 323.081C167.678 323.081 167.095 323.631 167.051 324.489H166.314C166.347 323.323 167.315 322.454 168.58 322.454C169.9 322.454 170.791 323.257 170.791 324.401C170.791 325.171 170.329 325.787 169.515 326.128C170.538 326.381 171.132 327.041 171.132 327.943C171.132 329.219 170.12 330.099 168.624 330.099ZM172.356 326.293C172.356 323.829 173.302 322.454 174.996 322.454C176.679 322.454 177.636 323.829 177.636 326.293C177.636 328.757 176.701 330.11 174.996 330.11C173.28 330.11 172.356 328.757 172.356 326.293ZM173.148 326.293C173.148 328.339 173.775 329.428 174.996 329.428C176.195 329.428 176.844 328.35 176.844 326.293C176.844 324.225 176.195 323.136 174.996 323.136C173.797 323.136 173.148 324.214 173.148 326.293Z" fill="#CCCCCC"/>
<circle cx="158" cy="345" r="3" fill="#2B2A2F"/>
<rect x="191" y="312" width="40" height="40" rx="12" fill="#2B2A2F"/>
<path d="M214.124 330.099C212.65 330.099 211.638 329.23 211.605 327.943H212.353C212.397 328.878 213.09 329.472 214.124 329.472C215.191 329.472 215.84 328.889 215.84 327.954C215.84 327.063 215.114 326.491 213.97 326.491H213.233V325.853H213.948C214.861 325.853 215.499 325.27 215.499 324.434C215.499 323.631 214.905 323.081 214.058 323.081C213.178 323.081 212.595 323.631 212.551 324.489H211.814C211.847 323.323 212.815 322.454 214.08 322.454C215.4 322.454 216.291 323.257 216.291 324.401C216.291 325.171 215.829 325.787 215.015 326.128C216.038 326.381 216.632 327.041 216.632 327.943C216.632 329.219 215.62 330.099 214.124 330.099ZM219.554 330H218.795V323.224H217.332V322.564H219.554V330Z" fill="#CCCCCC"/>
<circle cx="202" cy="345" r="3" fill="#2B2A2F"/>
<g clip-path="url(#clip3_52_594)">
<path fill-rule="evenodd" clip-rule="evenodd" d="M179.601 263.915L179.189 262.781L258.564 233.939L258.977 235.074L179.601 263.915ZM181.25 268.451L180.426 266.183L259.801 237.342L260.625 239.61L181.25 268.451ZM182.898 272.987L182.074 270.719L261.449 241.878L262.273 244.146L182.898 272.987ZM184.546 277.524L183.722 275.256L263.097 246.414L263.921 248.683L184.546 277.524ZM186.195 282.06L185.37 279.792L264.746 250.951L265.57 253.219L186.195 282.06ZM187.843 286.597L187.019 284.328L266.394 255.487L267.218 257.755L187.843 286.597ZM189.491 291.133L188.667 288.865L268.042 260.024L268.866 262.292L189.491 291.133ZM191.139 295.669L190.315 293.401L269.69 264.56L270.515 266.828L191.139 295.669ZM192.788 300.206L191.964 297.937L271.339 269.096L272.163 271.364L192.788 300.206ZM194.436 304.742L193.612 302.474L272.987 273.633L273.811 275.901L194.436 304.742ZM196.084 309.278L195.26 307.01L274.635 278.169L275.46 280.437L196.084 309.278ZM197.733 313.815L196.909 311.547L276.284 282.705L277.108 284.974L197.733 313.815ZM199.381 318.351L198.557 316.083L277.932 287.242L278.756 289.51L199.381 318.351ZM201.029 322.887L200.205 320.619L279.58 291.778L280.404 294.046L201.029 322.887ZM202.678 327.424L201.853 325.156L281.229 296.314L282.053 298.583L202.678 327.424ZM204.326 331.96L203.502 329.692L282.877 300.851L283.701 303.119L204.326 331.96ZM205.974 336.497L205.15 334.228L284.525 305.387L285.349 307.655L205.974 336.497ZM207.622 341.033L206.798 338.765L286.173 309.924L286.998 312.192L207.622 341.033ZM209.271 345.569L208.447 343.301L287.822 314.46L288.646 316.728L209.271 345.569ZM210.919 350.106L210.095 347.837L289.47 318.996L290.294 321.264L210.919 350.106ZM212.567 354.642L211.743 352.374L291.118 323.533L291.943 325.801L212.567 354.642ZM214.216 359.178L213.392 356.91L292.767 328.069L293.591 330.337L214.216 359.178ZM215.864 363.715L215.04 361.447L294.415 332.605L295.239 334.874L215.864 363.715ZM217.512 368.251L216.688 365.983L296.063 337.142L296.887 339.41L217.512 368.251ZM219.161 372.787L218.336 370.519L297.712 341.678L298.536 343.946L219.161 372.787ZM220.809 377.324L219.985 375.056L299.36 346.214L300.184 348.483L220.809 377.324ZM222.457 381.86L221.633 379.592L301.008 350.751L301.832 353.019L222.457 381.86ZM224.105 386.396L223.281 384.128L302.656 355.287L303.481 357.555L224.105 386.396ZM225.754 390.933L224.93 388.665L304.305 359.823L305.129 362.092L225.754 390.933ZM227.402 395.469L226.578 393.201L305.953 364.36L306.777 366.628L227.402 395.469ZM229.05 400.006L228.226 397.737L307.601 368.896L308.426 371.164L229.05 400.006ZM230.699 404.542L229.875 402.274L309.25 373.433L310.074 375.701L230.699 404.542ZM232.347 409.078L231.523 406.81L310.898 377.969L311.722 380.237L232.347 409.078ZM233.995 413.615L233.171 411.346L312.546 382.505L313.37 384.773L233.995 413.615ZM235.644 418.151L234.819 415.883L314.195 387.042L315.019 389.31L235.644 418.151ZM237.292 422.687L236.468 420.419L315.843 391.578L316.667 393.846L237.292 422.687ZM238.94 427.224L238.116 424.956L317.491 396.114L318.315 398.383L238.94 427.224ZM240.588 431.76L239.764 429.492L319.139 400.651L319.964 402.919L240.588 431.76ZM242.237 436.296L241.413 434.028L320.788 405.187L321.612 407.455L242.237 436.296ZM243.885 440.833L243.061 438.565L322.436 409.723L323.26 411.992L243.885 440.833ZM245.533 445.369L244.709 443.101L324.084 414.26L324.909 416.528L245.533 445.369ZM247.182 449.906L246.358 447.637L325.733 418.796L326.557 421.064L247.182 449.906ZM248.83 454.442L248.006 452.174L327.381 423.333L328.205 425.601L248.83 454.442ZM250.478 458.978L249.654 456.71L329.029 427.869L329.853 430.137L250.478 458.978ZM252.127 463.515L251.302 461.246L330.678 432.405L331.502 434.673L252.127 463.515ZM253.775 468.051L252.951 465.783L332.326 436.942L333.15 439.21L253.775 468.051ZM255.423 472.587L254.599 470.319L333.974 441.478L334.798 443.746L255.423 472.587ZM257.071 477.124L256.247 474.856L335.622 446.014L336.447 448.283L257.071 477.124ZM258.72 481.66L257.896 479.392L337.271 450.551L338.095 452.819L258.72 481.66ZM260.368 486.196L259.544 483.928L338.919 455.087L339.743 457.355L260.368 486.196ZM262.016 490.733L261.192 488.465L340.567 459.623L341.392 461.892L262.016 490.733ZM263.665 495.269L262.841 493.001L342.216 464.16L343.04 466.428L263.665 495.269ZM265.313 499.806L264.489 497.537L343.864 468.696L344.688 470.964L265.313 499.806ZM266.961 504.342L266.137 502.074L345.512 473.233L346.336 475.501L266.961 504.342ZM268.61 508.878L267.785 506.61L347.161 477.769L347.985 480.037L268.61 508.878ZM269.846 512.281L269.434 511.146L348.809 482.305L349.221 483.439L269.846 512.281Z" fill="#2B2A2F"/>
<path d="M255.829 326.293C255.829 323.829 256.775 322.454 258.469 322.454C260.152 322.454 261.109 323.829 261.109 326.293C261.109 328.757 260.174 330.11 258.469 330.11C256.753 330.11 255.829 328.757 255.829 326.293ZM256.621 326.293C256.621 328.339 257.248 329.428 258.469 329.428C259.668 329.428 260.317 328.35 260.317 326.293C260.317 324.225 259.668 323.136 258.469 323.136C257.27 323.136 256.621 324.214 256.621 326.293ZM264.058 330H263.299V323.224H261.836V322.564H264.058V330Z" fill="#7A7A7A"/>
</g>
<rect x="235.5" y="312.5" width="39" height="39" rx="9.5" stroke="#2B2A2F"/>
<g clip-path="url(#clip4_52_594)">
<path fill-rule="evenodd" clip-rule="evenodd" d="M223.601 263.915L223.189 262.781L302.564 233.939L302.977 235.074L223.601 263.915ZM225.25 268.451L224.426 266.183L303.801 237.342L304.625 239.61L225.25 268.451ZM226.898 272.987L226.074 270.719L305.449 241.878L306.273 244.146L226.898 272.987ZM228.546 277.524L227.722 275.256L307.097 246.414L307.921 248.683L228.546 277.524ZM230.195 282.06L229.37 279.792L308.746 250.951L309.57 253.219L230.195 282.06ZM231.843 286.597L231.019 284.328L310.394 255.487L311.218 257.755L231.843 286.597ZM233.491 291.133L232.667 288.865L312.042 260.024L312.866 262.292L233.491 291.133ZM235.139 295.669L234.315 293.401L313.69 264.56L314.515 266.828L235.139 295.669ZM236.788 300.206L235.964 297.937L315.339 269.096L316.163 271.364L236.788 300.206ZM238.436 304.742L237.612 302.474L316.987 273.633L317.811 275.901L238.436 304.742ZM240.084 309.278L239.26 307.01L318.635 278.169L319.46 280.437L240.084 309.278ZM241.733 313.815L240.909 311.547L320.284 282.705L321.108 284.974L241.733 313.815ZM243.381 318.351L242.557 316.083L321.932 287.242L322.756 289.51L243.381 318.351ZM245.029 322.887L244.205 320.619L323.58 291.778L324.404 294.046L245.029 322.887ZM246.678 327.424L245.853 325.156L325.229 296.314L326.053 298.583L246.678 327.424ZM248.326 331.96L247.502 329.692L326.877 300.851L327.701 303.119L248.326 331.96ZM249.974 336.497L249.15 334.228L328.525 305.387L329.349 307.655L249.974 336.497ZM251.622 341.033L250.798 338.765L330.173 309.924L330.998 312.192L251.622 341.033ZM253.271 345.569L252.447 343.301L331.822 314.46L332.646 316.728L253.271 345.569ZM254.919 350.106L254.095 347.837L333.47 318.996L334.294 321.264L254.919 350.106ZM256.567 354.642L255.743 352.374L335.118 323.533L335.943 325.801L256.567 354.642ZM258.216 359.178L257.392 356.91L336.767 328.069L337.591 330.337L258.216 359.178ZM259.864 363.715L259.04 361.447L338.415 332.605L339.239 334.874L259.864 363.715ZM261.512 368.251L260.688 365.983L340.063 337.142L340.887 339.41L261.512 368.251ZM263.161 372.787L262.336 370.519L341.712 341.678L342.536 343.946L263.161 372.787ZM264.809 377.324L263.985 375.056L343.36 346.214L344.184 348.483L264.809 377.324ZM266.457 381.86L265.633 379.592L345.008 350.751L345.832 353.019L266.457 381.86ZM268.105 386.396L267.281 384.128L346.656 355.287L347.481 357.555L268.105 386.396ZM269.754 390.933L268.93 388.665L348.305 359.823L349.129 362.092L269.754 390.933ZM271.402 395.469L270.578 393.201L349.953 364.36L350.777 366.628L271.402 395.469ZM273.05 400.006L272.226 397.737L351.601 368.896L352.426 371.164L273.05 400.006ZM274.699 404.542L273.875 402.274L353.25 373.433L354.074 375.701L274.699 404.542ZM276.347 409.078L275.523 406.81L354.898 377.969L355.722 380.237L276.347 409.078ZM277.995 413.615L277.171 411.346L356.546 382.505L357.37 384.773L277.995 413.615ZM279.644 418.151L278.819 415.883L358.195 387.042L359.019 389.31L279.644 418.151ZM281.292 422.687L280.468 420.419L359.843 391.578L360.667 393.846L281.292 422.687ZM282.94 427.224L282.116 424.956L361.491 396.114L362.315 398.383L282.94 427.224ZM284.588 431.76L283.764 429.492L363.139 400.651L363.964 402.919L284.588 431.76ZM286.237 436.296L285.413 434.028L364.788 405.187L365.612 407.455L286.237 436.296ZM287.885 440.833L287.061 438.565L366.436 409.723L367.26 411.992L287.885 440.833ZM289.533 445.369L288.709 443.101L368.084 414.26L368.909 416.528L289.533 445.369ZM291.182 449.906L290.358 447.637L369.733 418.796L370.557 421.064L291.182 449.906ZM292.83 454.442L292.006 452.174L371.381 423.333L372.205 425.601L292.83 454.442ZM294.478 458.978L293.654 456.71L373.029 427.869L373.853 430.137L294.478 458.978ZM296.127 463.515L295.302 461.246L374.678 432.405L375.502 434.673L296.127 463.515ZM297.775 468.051L296.951 465.783L376.326 436.942L377.15 439.21L297.775 468.051ZM299.423 472.587L298.599 470.319L377.974 441.478L378.798 443.746L299.423 472.587ZM301.071 477.124L300.247 474.856L379.622 446.014L380.447 448.283L301.071 477.124ZM302.72 481.66L301.896 479.392L381.271 450.551L382.095 452.819L302.72 481.66ZM304.368 486.196L303.544 483.928L382.919 455.087L383.743 457.355L304.368 486.196ZM306.016 490.733L305.192 488.465L384.567 459.623L385.392 461.892L306.016 490.733ZM307.665 495.269L306.841 493.001L386.216 464.16L387.04 466.428L307.665 495.269ZM309.313 499.806L308.489 497.537L387.864 468.696L388.688 470.964L309.313 499.806ZM310.961 504.342L310.137 502.074L389.512 473.233L390.336 475.501L310.961 504.342ZM312.61 508.878L311.785 506.61L391.161 477.769L391.985 480.037L312.61 508.878ZM313.846 512.281L313.434 511.146L392.809 482.305L393.221 483.439L313.846 512.281Z" fill="#2B2A2F"/>
<path d="M297.54 326.293C297.54 323.829 298.486 322.454 300.18 322.454C301.863 322.454 302.82 323.829 302.82 326.293C302.82 328.757 301.885 330.11 300.18 330.11C298.464 330.11 297.54 328.757 297.54 326.293ZM298.332 326.293C298.332 328.339 298.959 329.428 300.18 329.428C301.379 329.428 302.028 328.35 302.028 326.293C302.028 324.225 301.379 323.136 300.18 323.136C298.981 323.136 298.332 324.214 298.332 326.293ZM308.475 329.318V330H303.987V329.56L306.363 326.876C307.265 325.853 307.595 325.303 307.595 324.588C307.595 323.752 306.979 323.136 306.11 323.136C305.208 323.136 304.57 323.763 304.57 324.687H303.822C303.822 323.389 304.779 322.454 306.143 322.454C307.441 322.454 308.398 323.323 308.398 324.522C308.398 325.325 308.079 325.93 306.935 327.206L305.12 329.318H308.475Z" fill="#7A7A7A"/>
</g>
<rect x="279.5" y="312.5" width="39" height="39" rx="9.5" stroke="#2B2A2F"/>
<path d="M40.484 39.924H38.276V43.5H35.852V39.924H28.052V38.22L36.404 27.276H38.276V37.812H40.484V39.924ZM30.764 37.812H35.852V30.948L30.764 37.812ZM58.0716 25.79V37.164H56.1576V36.196H52.3736V34.964H56.1576V25.79H58.0716ZM42.1216 33.028C44.5269 33.028 46.7562 32.9987 48.8096 32.94C50.8776 32.8667 52.8356 32.7347 54.6836 32.544L54.8156 33.754C53.2609 33.974 51.3836 34.15 49.1836 34.282V37.23H47.2916V34.348C46.1182 34.392 44.4756 34.414 42.3636 34.414L42.1216 33.028ZM43.5736 29.068C43.5736 28.1733 44.0062 27.4693 44.8716 26.956C45.7369 26.428 46.8956 26.164 48.3476 26.164C49.7996 26.164 50.9582 26.428 51.8236 26.956C52.6889 27.4693 53.1216 28.1733 53.1216 29.068C53.1216 29.948 52.6889 30.652 51.8236 31.18C50.9582 31.6933 49.7996 31.95 48.3476 31.95C46.8956 31.95 45.7369 31.6933 44.8716 31.18C44.0062 30.652 43.5736 29.948 43.5736 29.068ZM45.0256 37.868H58.0716V41.938H46.9616V43.566H58.7096V44.952H45.0696V40.684H56.2016V39.21H45.0256V37.868ZM45.3556 29.068C45.3556 29.5667 45.6269 29.9627 46.1696 30.256C46.7122 30.5347 47.4382 30.674 48.3476 30.674C49.2569 30.674 49.9829 30.5347 50.5256 30.256C51.0682 29.9627 51.3396 29.5667 51.3396 29.068C51.3396 28.5693 51.0682 28.1807 50.5256 27.902C49.9829 27.6087 49.2569 27.462 48.3476 27.462C47.4382 27.462 46.7122 27.6087 46.1696 27.902C45.6269 28.1807 45.3556 28.5693 45.3556 29.068Z" fill="#D4F120"/>
<path d="M34.445 64.57V65.5H28.325V64.9L31.565 61.24C32.795 59.845 33.245 59.095 33.245 58.12C33.245 56.98 32.405 56.14 31.22 56.14C29.99 56.14 29.12 56.995 29.12 58.255H28.1C28.1 56.485 29.405 55.21 31.265 55.21C33.035 55.21 34.34 56.395 34.34 58.03C34.34 59.125 33.905 59.95 32.345 61.69L29.87 64.57H34.445ZM35.9261 60.445C35.9261 57.085 37.2161 55.21 39.5261 55.21C41.8211 55.21 43.1261 57.085 43.1261 60.445C43.1261 63.805 41.8511 65.65 39.5261 65.65C37.1861 65.65 35.9261 63.805 35.9261 60.445ZM37.0061 60.445C37.0061 63.235 37.8611 64.72 39.5261 64.72C41.1611 64.72 42.0461 63.25 42.0461 60.445C42.0461 57.625 41.1611 56.14 39.5261 56.14C37.8911 56.14 37.0061 57.61 37.0061 60.445ZM50.8366 64.57V65.5H44.7166V64.9L47.9566 61.24C49.1866 59.845 49.6366 59.095 49.6366 58.12C49.6366 56.98 48.7966 56.14 47.6116 56.14C46.3816 56.14 45.5116 56.995 45.5116 58.255H44.4916C44.4916 56.485 45.7966 55.21 47.6566 55.21C49.4266 55.21 50.7316 56.395 50.7316 58.03C50.7316 59.125 50.2966 59.95 48.7366 61.69L46.2616 64.57H50.8366ZM58.9272 63.085H57.5622V65.5H56.5272V63.085H51.5922V62.38L56.8272 55.36H57.5622V62.17H58.9272V63.085ZM52.8072 62.17H56.5272V57.07L52.8072 62.17Z" fill="#7D7C81"/>
<rect x="221.5" y="25" width="38" height="38" rx="12" fill="#2B2A2F"/>
<path d="M242.5 49.28L238.153 44.9333C237.64 44.42 237.64 43.58 238.153 43.0666L242.5 38.72" stroke="white" stroke-miterlimit="10" stroke-linecap="round" stroke-linejoin="round"/>
<rect x="303.5" y="63" width="38" height="38" rx="12" transform="rotate(-180 303.5 63)" fill="#2B2A2F"/>
<path d="M282.5 38.72L286.847 43.0667C287.36 43.58 287.36 44.42 286.847 44.9334L282.5 49.28" stroke="white" stroke-miterlimit="10" stroke-linecap="round" stroke-linejoin="round"/>
<defs>
<clipPath id="clip0_52_594">
<rect x="15" y="120" width="40" height="40" rx="10" fill="white"/>
</clipPath>
<clipPath id="clip1_52_594">
<rect x="59" y="120" width="40" height="40" rx="10" fill="white"/>
</clipPath>
<clipPath id="clip2_52_594">
<rect x="103" y="120" width="40" height="40" rx="10" fill="white"/>
</clipPath>
<clipPath id="clip3_52_594">
<rect x="235" y="312" width="40" height="40" rx="10" fill="white"/>
</clipPath>
<clipPath id="clip4_52_594">
<rect x="279" y="312" width="40" height="40" rx="10" fill="white"/>
</clipPath>
</defs>
</svg>
