<svg width="266" height="64" viewBox="0 0 266 64" fill="none" xmlns="http://www.w3.org/2000/svg">
<path d="M248.145 59.7671C244.857 59.7671 241.645 59.3935 238.507 58.6464C235.419 57.8495 232.655 56.5546 230.215 54.7616C227.824 52.9686 225.881 50.6028 224.387 47.6642C222.893 44.7257 222.146 41.0899 222.146 36.7568C222.146 32.9217 222.793 29.2361 224.088 25.6999C225.433 22.1637 227.351 19.0508 229.841 16.3613C232.381 13.6718 235.444 11.5301 239.03 9.93633C242.666 8.29274 246.8 7.47095 251.432 7.47095C252.528 7.47095 253.723 7.59546 255.018 7.84449C256.363 8.04371 257.608 8.41726 258.753 8.96512C259.899 9.51299 260.845 10.2601 261.592 11.2064C262.389 12.1527 262.788 13.3729 262.788 14.8671C262.788 15.5644 262.663 16.4858 262.414 17.6313C262.165 18.7271 261.791 19.7979 261.293 20.8438C260.845 21.8897 260.297 22.8111 259.65 23.608C259.002 24.3551 258.28 24.7287 257.483 24.7287C256.985 24.7287 256.338 24.6042 255.541 24.3551C254.794 24.0563 253.997 23.7575 253.15 23.4586C252.303 23.1598 251.432 22.8859 250.535 22.6368C249.639 22.338 248.792 22.1886 247.995 22.1886C246.352 22.1886 244.957 22.587 243.812 23.3839C242.666 24.1808 241.72 25.2018 240.973 26.447C240.275 27.6423 239.752 28.9871 239.404 30.4812C239.105 31.9256 238.955 33.3451 238.955 34.7396C238.955 35.8354 239.155 37.0058 239.553 38.2509C239.952 39.4961 240.524 40.6416 241.271 41.6875C242.019 42.7335 242.94 43.6051 244.036 44.3024C245.181 44.9996 246.476 45.3483 247.921 45.3483C248.767 45.3483 249.489 45.174 250.087 44.8253C250.735 44.4767 251.282 44.0533 251.731 43.5553C252.179 43.0074 252.503 42.4097 252.702 41.7623C252.951 41.1148 253.075 40.5171 253.075 39.9692C253.075 38.8237 252.702 38.1264 251.955 37.8774C251.258 37.6284 250.261 37.5039 248.966 37.5039C248.319 37.5039 247.671 37.479 247.024 37.4292C246.426 37.3295 245.878 37.1054 245.38 36.7568C244.882 36.3583 244.459 35.8105 244.11 35.1132C243.812 34.3661 243.662 33.3451 243.662 32.0501C243.662 30.7552 243.836 29.7591 244.185 29.0618C244.534 28.3645 245.007 27.8415 245.605 27.4929C246.252 27.0944 246.999 26.8703 247.846 26.8205C248.742 26.7209 249.714 26.6711 250.759 26.6711C253.798 26.6711 256.288 26.9201 258.23 27.4182C260.223 27.9162 261.791 28.7131 262.937 29.8089C264.082 30.8548 264.879 32.2244 265.328 33.9178C265.776 35.6112 266 37.6782 266 40.1187C266 43.0572 265.626 45.7467 264.879 48.1872C264.182 50.5779 263.086 52.6448 261.592 54.388C260.148 56.0814 258.305 57.4013 256.064 58.3476C253.823 59.2939 251.183 59.7671 248.145 59.7671Z" fill="#1B1A1F"/>
<path d="M210.063 61.261C208.469 61.261 207 61.1863 205.655 61.0369C204.311 60.8875 203.14 60.5139 202.144 59.9163C201.148 59.3684 200.376 58.5715 199.828 57.5256C199.28 56.4299 199.006 54.9855 199.006 53.1925C199.006 52.0469 199.031 50.9014 199.081 49.7559C199.181 48.5605 199.23 47.3901 199.23 46.2446C199.23 45.4975 198.956 44.4765 198.409 43.1815C197.861 41.8866 197.188 40.6165 196.391 39.3714C195.595 38.0764 194.773 36.9807 193.926 36.0842C193.129 35.1379 192.432 34.6647 191.834 34.6647C191.486 34.6647 191.286 34.9137 191.237 35.4118C191.187 35.9099 191.162 36.2834 191.162 36.5324C191.162 38.176 191.237 39.6204 191.386 40.8655C191.585 42.1107 191.834 43.306 192.133 44.4516C192.482 45.5473 192.88 46.6679 193.328 47.8134C193.777 48.959 194.275 50.2788 194.823 51.773C194.972 52.1715 195.121 52.5948 195.271 53.0431C195.42 53.4913 195.495 53.9396 195.495 54.3878C195.495 55.4337 195.072 56.3053 194.225 57.0026C193.378 57.6999 192.357 58.2478 191.162 58.6462C190.016 59.0447 188.821 59.3186 187.576 59.468C186.331 59.6174 185.31 59.6921 184.513 59.6921C183.716 59.6921 182.844 59.6423 181.898 59.5427C181.001 59.4431 180.13 59.2688 179.283 59.0198C178.436 58.7209 177.664 58.3225 176.967 57.8244C176.27 57.2766 175.722 56.6042 175.324 55.8073C174.676 54.4127 174.153 52.4952 173.755 50.0547C173.406 47.6142 173.157 45.0243 173.008 42.285C172.858 39.5457 172.759 36.8811 172.709 34.2912C172.709 31.7013 172.709 29.5596 172.709 27.8662C172.709 25.2763 172.709 22.5868 172.709 19.7977C172.709 16.9587 173.057 14.2692 173.755 11.7291C174.004 10.8326 174.527 10.1104 175.324 9.56257C176.12 9.01471 177.042 8.59136 178.088 8.29253C179.134 7.94388 180.205 7.71976 181.3 7.62015C182.396 7.52053 183.317 7.47073 184.064 7.47073C185.708 7.47073 187.252 7.76956 188.696 8.36723C190.141 8.9151 191.286 9.96102 192.133 11.505C192.382 11.9533 192.706 12.6754 193.104 13.6716C193.552 14.6179 194.026 15.7136 194.524 16.9587C195.072 18.1541 195.644 19.3992 196.242 20.6942C196.84 21.9891 197.437 23.1845 198.035 24.2802C198.682 25.3261 199.28 26.1977 199.828 26.895C200.426 27.5923 200.949 27.9409 201.397 27.9409C201.546 27.9409 201.646 27.8413 201.696 27.6421C201.795 27.3931 201.845 27.144 201.845 26.895C201.895 26.5962 201.92 26.3222 201.92 26.0732C201.92 25.7744 201.92 25.6 201.92 25.5502C201.92 24.4545 201.746 23.3588 201.397 22.2631C201.098 21.1673 200.725 20.0716 200.276 18.9759C199.878 17.8801 199.504 16.7844 199.156 15.6887C198.857 14.593 198.707 13.4972 198.707 12.4015C198.707 11.4552 198.956 10.6334 199.454 9.93611C199.953 9.18903 200.575 8.56646 201.322 8.0684C202.119 7.57034 202.966 7.1968 203.862 6.94777C204.759 6.64893 205.606 6.49951 206.402 6.49951C207.1 6.49951 207.946 6.57422 208.942 6.72364C209.939 6.87306 210.91 7.12209 211.856 7.47073C212.852 7.76956 213.749 8.16801 214.546 8.66607C215.343 9.11432 215.915 9.68709 216.264 10.3844C216.812 11.4801 217.285 12.8747 217.683 14.5681C218.082 16.2615 218.43 18.1292 218.729 20.1712C219.028 22.1634 219.277 24.2802 219.476 26.5215C219.676 28.7129 219.825 30.8546 219.925 32.9464C220.074 34.9884 220.174 36.906 220.223 38.699C220.273 40.492 220.298 42.0111 220.298 43.2562C220.298 43.8539 220.273 44.7504 220.223 45.9457C220.223 47.1411 220.199 48.3862 220.149 49.6812C220.149 50.9761 220.099 52.1964 219.999 53.3419C219.95 54.4376 219.85 55.2096 219.701 55.6579C219.452 56.4548 218.953 57.2018 218.206 57.8991C217.459 58.5466 216.613 59.1194 215.666 59.6174C214.72 60.1155 213.724 60.5139 212.678 60.8128C211.682 61.1116 210.81 61.261 210.063 61.261Z" fill="#1B1A1F"/>
<path d="M159.652 59.7671C156.398 59.7671 153.921 58.8443 152.221 56.9989C150.569 55.1036 149.549 52.485 149.161 49.1432C148.481 43.0084 148.214 36.9483 148.359 30.9631C148.554 24.9778 149.064 18.9676 149.889 12.9325C150.035 11.8851 150.448 11.0122 151.128 10.3139C151.856 9.56578 152.682 8.9922 153.605 8.59318C154.576 8.19417 155.548 7.91984 156.519 7.77021C157.539 7.5707 158.438 7.47095 159.215 7.47095C161.061 7.47095 162.712 7.91984 164.17 8.81763C165.675 9.71542 166.622 11.3364 167.011 13.6806C167.448 16.2743 167.812 19.2419 168.104 22.5837C168.395 25.8756 168.638 29.2672 168.832 32.7586C169.075 36.2001 169.245 39.6167 169.342 43.0084C169.44 46.3501 169.488 49.3677 169.488 52.0611C169.488 53.4077 169.172 54.5798 168.541 55.5774C167.91 56.5251 167.108 57.3231 166.137 57.9715C165.214 58.57 164.17 59.0189 163.004 59.3182C161.838 59.6174 160.721 59.7671 159.652 59.7671Z" fill="#1B1A1F"/>
<path d="M127.598 59.9912C124.51 59.9912 121.92 59.518 119.828 58.5717C117.786 57.5756 116.092 56.2807 114.748 54.6869C113.403 53.0433 112.382 51.1507 111.685 49.009C110.987 46.8674 110.489 44.6012 110.19 42.2105C109.892 39.8198 109.717 37.3793 109.667 34.8891C109.667 32.3988 109.667 30.033 109.667 27.7917C109.667 26.945 109.667 25.7497 109.667 24.2057C109.717 22.6617 109.792 21.0679 109.892 19.4243C110.041 17.7808 110.215 16.2368 110.415 14.7924C110.614 13.2982 110.888 12.1776 111.236 11.4305C111.983 9.83673 112.955 8.7908 114.15 8.29275C115.345 7.74488 116.74 7.47095 118.334 7.47095C119.18 7.47095 120.251 7.52075 121.546 7.62037C122.891 7.71998 124.186 7.9441 125.431 8.29275C126.726 8.59158 127.822 9.08964 128.718 9.78692C129.615 10.4344 130.063 11.3558 130.063 12.5511C130.063 13.3978 129.938 14.2694 129.689 15.166C129.49 16.0126 129.316 16.8593 129.166 17.706C128.718 20.0469 128.345 22.3878 128.046 24.7287C127.747 27.0197 127.598 29.3606 127.598 31.7513C127.598 32.8968 127.622 34.1918 127.672 35.6361C127.772 37.0805 128.021 38.4253 128.419 39.6704C128.868 40.9156 129.515 41.9615 130.362 42.8082C131.258 43.6549 132.503 44.0782 134.097 44.0782C134.994 44.0782 135.766 44.0035 136.413 43.8541C137.11 43.6549 137.758 43.4806 138.356 43.3311C139.003 43.1319 139.651 42.9576 140.298 42.8082C140.946 42.609 141.718 42.5093 142.614 42.5093C143.461 42.5093 144.183 42.8082 144.781 43.4058C145.428 43.9537 145.926 44.651 146.275 45.4977C146.673 46.2946 146.947 47.1413 147.097 48.0378C147.296 48.9343 147.395 49.7312 147.395 50.4285C147.395 51.4246 147.246 52.346 146.947 53.1927C146.648 53.9896 146.125 54.7367 145.378 55.434C144.482 56.2309 143.262 56.9281 141.718 57.5258C140.223 58.1235 138.63 58.5966 136.936 58.9453C135.293 59.2939 133.624 59.5678 131.931 59.7671C130.287 59.9165 128.843 59.9912 127.598 59.9912Z" fill="#1B1A1F"/>
<path d="M90.0295 59.9912C86.9415 59.9912 84.3516 59.518 82.2598 58.5717C80.2177 57.5756 78.5243 56.2807 77.1796 54.6869C75.8348 53.0433 74.8138 51.1507 74.1165 49.009C73.4192 46.8674 72.9212 44.6012 72.6223 42.2105C72.3235 39.8198 72.1492 37.3793 72.0994 34.8891C72.0994 32.3988 72.0994 30.033 72.0994 27.7917C72.0994 26.945 72.0994 25.7497 72.0994 24.2057C72.1492 22.6617 72.2239 21.0679 72.3235 19.4243C72.4729 17.7808 72.6472 16.2368 72.8465 14.7924C73.0457 13.2982 73.3196 12.1776 73.6682 11.4305C74.4153 9.83673 75.3865 8.7908 76.5819 8.29275C77.7772 7.74488 79.1718 7.47095 80.7656 7.47095C81.6123 7.47095 82.6831 7.52075 83.9781 7.62037C85.3228 7.71998 86.6178 7.9441 87.8629 8.29275C89.1579 8.59158 90.2536 9.08964 91.1501 9.78692C92.0466 10.4344 92.4948 11.3558 92.4948 12.5511C92.4948 13.3978 92.3703 14.2694 92.1213 15.166C91.9221 16.0126 91.7478 16.8593 91.5983 17.706C91.1501 20.0469 90.7766 22.3878 90.4777 24.7287C90.1789 27.0197 90.0295 29.3606 90.0295 31.7513C90.0295 32.8968 90.0544 34.1918 90.1042 35.6361C90.2038 37.0805 90.4528 38.4253 90.8513 39.6704C91.2995 40.9156 91.947 41.9615 92.7937 42.8082C93.6902 43.6549 94.9353 44.0782 96.5291 44.0782C97.4256 44.0782 98.1976 44.0035 98.8451 43.8541C99.5424 43.6549 100.19 43.4806 100.788 43.3311C101.435 43.1319 102.082 42.9576 102.73 42.8082C103.377 42.609 104.149 42.5093 105.046 42.5093C105.893 42.5093 106.615 42.8082 107.212 43.4058C107.86 43.9537 108.358 44.651 108.707 45.4977C109.105 46.2946 109.379 47.1413 109.528 48.0378C109.728 48.9343 109.827 49.7312 109.827 50.4285C109.827 51.4246 109.678 52.346 109.379 53.1927C109.08 53.9896 108.557 54.7367 107.81 55.434C106.914 56.2309 105.693 56.9281 104.149 57.5258C102.655 58.1235 101.061 58.5966 99.3681 58.9453C97.7245 59.2939 96.056 59.5678 94.3626 59.7671C92.719 59.9165 91.2746 59.9912 90.0295 59.9912Z" fill="#1B1A1F"/>
<path d="M59.4618 59.7669C56.016 59.7669 53.3931 59.0639 51.5931 57.6578C49.8445 56.2138 48.7645 54.2187 48.353 51.6726C47.633 46.9984 47.3502 42.3812 47.5045 37.821C47.7102 33.2608 48.2502 28.6816 49.1245 24.0834C49.2788 23.2854 49.7159 22.6204 50.4359 22.0883C51.2074 21.5183 52.0817 21.0813 53.0588 20.7773C54.0874 20.4733 55.116 20.2643 56.1446 20.1503C57.2246 19.9982 58.1761 19.9222 58.9989 19.9222C60.9532 19.9222 62.7018 20.2643 64.2447 20.9483C65.839 21.6323 66.8419 22.8674 67.2533 24.6534C67.7162 26.6295 68.1019 28.8906 68.4105 31.4367C68.7191 33.9448 68.9762 36.5289 69.1819 39.189C69.4391 41.8112 69.6191 44.4143 69.722 46.9984C69.8248 49.5445 69.8762 51.8436 69.8762 53.8957C69.8762 54.9217 69.542 55.8147 68.8734 56.5748C68.2048 57.2968 67.3562 57.9048 66.3276 58.3988C65.3505 58.8549 64.2447 59.1969 63.0104 59.4249C61.7761 59.6529 60.5932 59.7669 59.4618 59.7669Z" fill="#1B1A1F"/>
<path d="M23.55 60.8711C21.0187 61.4192 18.8445 61.3804 17.0273 60.7547C15.2102 60.129 13.6494 59.0401 12.345 57.488C11.0302 55.8872 9.93883 53.9067 9.07104 51.5466C8.24139 49.1273 7.51034 46.4573 6.87789 43.5367C6.47734 41.6869 6.0537 39.6129 5.60695 37.3145C5.16021 35.0161 4.80556 32.6723 4.54298 30.283C4.32909 27.8833 4.27177 25.5006 4.37102 23.1349C4.51895 20.7587 4.96298 18.5732 5.70309 16.5783C6.44321 14.5835 7.57878 12.8852 9.10982 11.4835C10.679 10.0226 12.7535 9.01284 15.3335 8.45417L16.5747 8.18538C18.3271 7.80591 20.1684 7.48365 22.0984 7.21859C24.0179 6.90485 25.9204 6.74769 27.8058 6.7471C29.6806 6.69783 31.5194 6.83474 33.322 7.15784C35.1246 7.48094 36.7556 8.07052 38.2149 8.92659C39.6743 9.78265 40.9483 10.9591 42.0368 12.4561C43.1149 13.9043 43.9016 15.7724 44.397 18.0602C44.787 19.8613 45.0468 21.767 45.1764 23.7774C45.3441 25.7285 45.3065 27.6731 45.0637 29.6112C44.8209 31.5493 44.3327 33.4132 43.5991 35.2027C42.855 36.9436 41.7957 38.5235 40.4212 39.9422C39.8451 40.5766 39.1559 41.159 38.3535 41.6895C37.5511 42.2199 36.7361 42.5748 35.9086 42.754C34.643 43.028 33.4621 43.1054 32.3661 42.986C31.2701 42.8666 30.0893 42.9439 28.8237 43.218C27.9962 43.3972 27.4437 43.6697 27.1662 44.0356C26.9373 44.3909 26.902 44.9336 27.0601 45.6638C27.2287 46.4426 27.4651 47.1813 27.7693 47.8799C28.1116 48.5192 28.4591 49.1828 28.8119 49.8708C29.2029 50.4996 29.5505 51.1633 29.8546 51.8618C30.2074 52.5498 30.4629 53.2589 30.621 53.9891C30.8318 54.9626 30.719 55.8534 30.2824 56.6614C29.884 57.4101 29.3132 58.0688 28.57 58.6374C27.8268 59.206 26.9895 59.6931 26.0581 60.0986C25.1648 60.445 24.3288 60.7024 23.55 60.8711ZM26.6408 30.3136C27.4684 30.1344 28.1182 29.8408 28.5904 29.4328C29.0521 28.9761 29.4006 28.4675 29.6359 27.9069C29.8607 27.2977 29.9533 26.6661 29.9136 26.0122C29.9226 25.3478 29.8586 24.6992 29.7216 24.0664C29.3316 22.2653 28.6194 21.0946 27.5851 20.5541C26.5508 20.0137 25.4738 19.8647 24.3543 20.1071C23.8188 20.2231 23.3202 20.5094 22.8586 20.9661C22.3864 21.3741 21.9892 21.8933 21.667 22.5236C21.3936 23.1434 21.1846 23.8256 21.0401 24.5704C20.9337 25.2559 20.9543 25.9394 21.1019 26.6209C21.3443 27.7405 21.9657 28.727 22.9659 29.5806C24.0042 30.375 25.2292 30.6193 26.6408 30.3136Z" fill="#1B1A1F"/>
<circle cx="58.7944" cy="8.71602" r="8.71602" fill="#1B1A1F"/>
</svg>
