<svg width="486" height="470" viewBox="0 0 486 470" fill="none" xmlns="http://www.w3.org/2000/svg">
<path d="M-5213 -2554C-5213 -2555.1 -5212.1 -2556 -5211 -2556H11982C11983.1 -2556 11984 -2555.1 11984 -2554V7157C11984 7158.1 11983.1 7159 11982 7159H-5211C-5212.1 7159 -5213 7158.1 -5213 7157V-2554Z" fill="#727272"/>
<path d="M-5211 -2555H11982V-2557H-5211V-2555ZM11983 -2554V7157H11985V-2554H11983ZM11982 7158H-5211V7160H11982V7158ZM-5212 7157V-2554H-5214V7157H-5212ZM-5211 7158C-5211.55 7158 -5212 7157.55 -5212 7157H-5214C-5214 7158.66 -5212.66 7160 -5211 7160V7158ZM11983 7157C11983 7157.55 11982.6 7158 11982 7158V7160C11983.7 7160 11985 7158.66 11985 7157H11983ZM11982 -2555C11982.6 -2555 11983 -2554.55 11983 -2554H11985C11985 -2555.66 11983.7 -2557 11982 -2557V-2555ZM-5211 -2557C-5212.66 -2557 -5214 -2555.66 -5214 -2554H-5212C-5212 -2554.55 -5211.55 -2555 -5211 -2555V-2557Z" fill="black" fill-opacity="0.1"/>
<rect x="-18" y="-27" width="517" height="578" fill="white"/>
<path d="M110.644 180.489C102.551 180.489 94.4695 180.889 90.8232 189.793C84.7535 204.756 98.916 213.249 111.855 213.249L110.644 180.489Z" fill="#FFE6C0"/>
<path d="M109.18 152.587C99.4072 152.587 89.6341 152.987 85.2333 161.891C77.9063 176.854 95.0065 185.347 110.643 185.347L109.18 152.587Z" fill="#FFE6C0"/>
<path d="M107.969 122.261C98.1954 122.261 88.4223 122.661 84.0215 131.565C76.6946 146.528 93.7947 155.021 109.432 155.021L107.969 122.261Z" fill="#FFE6C0"/>
<path d="M105.627 93.4104C95.8539 93.4104 86.0808 93.8105 81.68 102.715C74.353 117.678 91.4531 126.17 107.09 126.17L105.627 93.4104Z" fill="#FFE6C0"/>
<path d="M229.625 299.252C240.141 311.38 329.105 465.864 333.963 474.768L483.863 476.026C474.159 457.417 300.803 254.776 287.863 245.06L229.625 299.252Z" fill="#FFE6C0"/>
<path d="M169.773 258.811C178.472 290.36 198.693 314.147 231.853 318.193C260.966 322.239 307.272 321.908 306.472 280.655C305.66 249.107 283.828 216.758 270.888 188.445C256.326 156.096 225.6 123.736 186.771 135.876L169.773 258.811Z" fill="#FFE6C0"/>
<path d="M275.518 383.563L324.315 473.076H486C486 473.076 396.259 350.014 361.853 312.362L275.518 383.563Z" fill="#9B9B9B"/>
<path d="M372.392 311.712C376.256 317.084 375.044 324.583 369.66 328.446L283.222 390.651C277.85 394.515 270.352 393.292 266.488 387.919L242.655 354.805C238.792 349.433 240.003 341.934 245.376 338.071L331.814 275.866C337.186 272.002 344.684 273.225 348.548 278.597L372.392 311.712Z" fill="#D9D9D9"/>
<rect x="94.9372" y="0.44598" width="137.188" height="269.043" rx="18.2852" fill="white" stroke="#1B1A1F" stroke-width="0.89196"/>
<rect x="97.1615" y="2.84349" width="132.742" height="264.245" rx="16.0553" fill="url(#paint0_linear_383_7707)" fill-opacity="0.3" stroke="#2B2A2F" stroke-width="3.56784"/>
<rect x="103.785" y="8.48462" width="119.086" height="18.5135" rx="9.25677" fill="white"/>
<path d="M121.345 16.3809C122.052 16.3809 122.557 16.8715 122.557 17.4749C122.557 17.8821 122.415 18.1421 122.121 18.5051L121.125 19.7414H120.556L121.532 18.5248C121.434 18.5591 121.336 18.5738 121.242 18.5738C120.6 18.5738 120.129 18.1372 120.129 17.4995C120.129 16.8715 120.639 16.3809 121.345 16.3809ZM121.341 16.7979C120.948 16.7979 120.644 17.0727 120.644 17.4847C120.644 17.9214 120.948 18.1863 121.341 18.1863C121.728 18.1863 122.042 17.9508 122.042 17.4896C122.042 17.0727 121.728 16.7979 121.341 16.7979ZM123.728 17.5142C123.728 17.7349 123.576 17.8919 123.35 17.8919C123.129 17.8919 122.972 17.7349 122.972 17.5142C122.972 17.2885 123.129 17.1315 123.35 17.1315C123.576 17.1315 123.728 17.2885 123.728 17.5142ZM123.728 19.3882C123.728 19.6089 123.576 19.7659 123.35 19.7659C123.129 19.7659 122.972 19.6089 122.972 19.3882C122.972 19.1576 123.129 19.0006 123.35 19.0006C123.576 19.0006 123.728 19.1576 123.728 19.3882ZM126.641 19.0104H126.189V19.7414H125.694V19.0104H124.099V18.6621L125.807 16.4251H126.189V18.5787H126.641V19.0104ZM124.654 18.5787H125.694V17.1757L124.654 18.5787ZM127.968 19.7414H127.467V16.8568H126.825V16.4251H127.968V19.7414Z" fill="#1B1A1F"/>
<path fill-rule="evenodd" clip-rule="evenodd" d="M194.636 16.2247C194.636 16.0314 194.49 15.8747 194.31 15.8747H193.984C193.804 15.8747 193.659 16.0314 193.659 16.2247V19.2581C193.659 19.4514 193.804 19.6081 193.984 19.6081H194.31C194.49 19.6081 194.636 19.4514 194.636 19.2581V16.2247ZM192.366 16.6213H192.691C192.871 16.6213 193.017 16.7818 193.017 16.9798V19.2497C193.017 19.4476 192.871 19.6081 192.691 19.6081H192.366C192.186 19.6081 192.04 19.4476 192.04 19.2497V16.9798C192.04 16.7818 192.186 16.6213 192.366 16.6213ZM191.043 17.4302H190.717C190.537 17.4302 190.391 17.5928 190.391 17.7932V19.2451C190.391 19.4456 190.537 19.6081 190.717 19.6081H191.043C191.223 19.6081 191.369 19.4456 191.369 19.2451V17.7932C191.369 17.5928 191.223 17.4302 191.043 17.4302ZM189.424 18.1769H189.099C188.919 18.1769 188.773 18.3371 188.773 18.5347V19.2503C188.773 19.4479 188.919 19.6081 189.099 19.6081H189.424C189.604 19.6081 189.75 19.4479 189.75 19.2503V18.5347C189.75 18.3371 189.604 18.1769 189.424 18.1769Z" fill="#1B1A1F"/>
<path fill-rule="evenodd" clip-rule="evenodd" d="M199.695 16.6124C200.455 16.6124 201.185 16.894 201.736 17.3989C201.777 17.4379 201.843 17.4374 201.884 17.3978L202.28 17.012C202.301 16.9919 202.313 16.9647 202.312 16.9364C202.312 16.9081 202.3 16.881 202.279 16.8612C200.835 15.5254 198.556 15.5254 197.111 16.8612C197.09 16.881 197.078 16.9081 197.078 16.9364C197.078 16.9647 197.089 16.9919 197.11 17.012L197.506 17.3978C197.547 17.4374 197.613 17.4379 197.655 17.3989C198.205 16.894 198.936 16.6124 199.695 16.6124ZM199.694 17.9011C200.109 17.9011 200.509 18.0573 200.816 18.3395C200.857 18.3796 200.923 18.3787 200.963 18.3376L201.356 17.9347C201.377 17.9136 201.389 17.8849 201.388 17.8551C201.388 17.8253 201.376 17.7969 201.355 17.7762C200.419 16.8935 198.97 16.8935 198.035 17.7762C198.014 17.7969 198.002 17.8253 198.001 17.8551C198.001 17.8849 198.013 17.9136 198.033 17.9347L198.426 18.3376C198.467 18.3787 198.532 18.3796 198.574 18.3395C198.881 18.0575 199.28 17.9013 199.694 17.9011ZM200.465 18.7541C200.466 18.7863 200.455 18.8173 200.434 18.8398L199.769 19.5894C199.75 19.6114 199.723 19.6238 199.696 19.6238C199.668 19.6238 199.641 19.6114 199.622 19.5894L198.957 18.8398C198.936 18.8173 198.925 18.7863 198.926 18.7541C198.926 18.7219 198.939 18.6915 198.96 18.6699C199.385 18.2687 200.006 18.2687 200.431 18.6699C200.452 18.6915 200.465 18.7219 200.465 18.7541Z" fill="#1B1A1F"/>
<rect opacity="0.35" x="204.908" y="15.9094" width="7.32853" height="3.66427" rx="1.16035" stroke="#1B1A1F" stroke-width="0.305355"/>
<path opacity="0.4" d="M212.694 17.2168V18.4612C212.94 18.3558 213.1 18.1106 213.1 17.839C213.1 17.5674 212.94 17.3222 212.694 17.2168" fill="#1B1A1F"/>
<rect x="205.366" y="16.3672" width="6.41247" height="2.7482" rx="0.763389" fill="#1B1A1F"/>
<rect x="144.694" y="11.3058" width="37.8641" height="10.9928" rx="5.4964" fill="#1B1A1F"/>
<g opacity="0.75">
<rect x="172.276" y="14.1566" width="5.29111" height="5.29111" rx="2.64555" fill="#1B1A1F"/>
<rect x="172.276" y="14.1566" width="5.29111" height="5.29111" rx="2.64555" stroke="#1B1A1F" stroke-width="0.205293"/>
<g filter="url(#filter0_f_383_7707)">
<path d="M174.312 15.5804C173.27 15.8519 172.923 17.4126 174.312 18.0233C173.965 17.209 173.965 16.4626 174.312 15.5804Z" fill="#1B1A1F"/>
</g>
<g filter="url(#filter1_f_383_7707)">
<path d="M174.083 16.1443C173.562 16.2905 173.388 17.1309 174.083 17.4597C173.909 17.0212 173.909 16.6193 174.083 16.1443Z" fill="#1B1A1F"/>
</g>
<g opacity="0.4" filter="url(#filter2_f_383_7707)">
<path d="M174.297 15.9326C173.851 15.9924 173.525 17.0903 174.064 17.3818C173.873 16.9903 173.968 16.2073 174.297 15.9326Z" fill="#D0FFF7"/>
</g>
<g filter="url(#filter3_f_383_7707)">
<path d="M175.228 15.5804C176.27 15.8519 176.617 17.4126 175.228 18.0233C175.575 17.209 175.575 16.4626 175.228 15.5804Z" fill="#1B1A1F"/>
</g>
<g filter="url(#filter4_f_383_7707)">
<path d="M175.457 16.1443C175.978 16.2905 176.152 17.1309 175.457 17.4597C175.631 17.0212 175.631 16.6193 175.457 16.1443Z" fill="#1B1A1F"/>
</g>
<g opacity="0.5" filter="url(#filter5_f_383_7707)">
<path d="M175.243 15.9326C175.689 15.9924 176.015 17.0903 175.476 17.3818C175.667 16.9903 175.572 16.2073 175.243 15.9326Z" fill="#1B1A1F"/>
</g>
</g>
<path d="M282.207 174.694C280.995 164.177 281.395 158.519 274.525 150.426C268.056 143.145 262.797 134.252 259.151 125.359C257.036 120.204 256.156 115.586 256.339 110.797C245.217 110.031 253.23 92.725 256.111 87.1354L262.352 90.256C262.512 89.3644 262.557 88.5185 262.386 87.7413C261.174 83.2948 255.916 82.8833 252.27 83.6948C232.449 87.3298 228.814 109.574 230.026 126.559C231.238 140.71 235.684 162.954 246.612 173.07C246.212 173.47 245.4 174.282 245.4 174.694C244.589 179.14 239.742 184.398 237.307 188.445C234.884 192.491 233.261 196.126 231.649 200.572C228.014 209.065 223.968 217.558 223.156 227.263C221.133 243.437 223.156 263.658 234.072 276.597L305.251 278.62C305.251 276.197 305.251 273.362 305.251 270.939C303.639 237.779 285.841 207.454 282.207 174.694Z" fill="#FFE6C0"/>
<path d="M230.036 126.57C231.065 134.892 232.711 143.133 235.283 151.066C236.574 155.021 238.117 158.896 240.038 162.542C241.97 166.177 244.324 169.606 247.285 172.338L247.948 172.955L247.388 173.687C241.809 181.002 237.192 189.038 233.408 197.451C229.636 205.853 226.538 214.631 224.709 223.604C223.178 232.634 222.858 241.962 224.115 251.083C224.755 255.644 225.807 260.148 227.396 264.48C228.996 268.801 231.202 272.927 234.06 276.596C230.928 273.144 228.504 269.075 226.653 264.777C224.789 260.479 223.521 255.918 222.72 251.3C221.12 242.042 221.212 232.543 222.663 223.238C223.475 218.575 224.755 214.06 226.23 209.613C227.716 205.167 229.384 200.777 231.351 196.525C233.305 192.262 235.443 188.089 237.832 184.054C240.255 180.031 242.918 176.167 245.833 172.464L245.936 173.813C242.758 170.806 240.415 167.126 238.517 163.331C236.62 159.513 235.191 155.512 234.025 151.454C232.859 147.397 232.013 143.259 231.351 139.109C230.699 134.937 230.242 130.765 230.036 126.57Z" fill="#EACB9E"/>
<path d="M256.34 110.796C256.465 107.333 257.151 103.789 258.34 99.88C259.3 97.331 261.746 93.536 262.352 90.2554L256.111 87.1349C253.231 92.7244 245.218 110.03 256.34 110.796Z" fill="#EACB9E"/>
<g filter="url(#filter6_f_383_7707)">
<circle cx="145.139" cy="198.426" r="20.9762" fill="#D4F120"/>
</g>
<circle cx="145.138" cy="198.427" r="10.2974" fill="#D0EC21"/>
<path d="M156.596 312.207C153.236 315.555 156.248 317.591 159.598 318.107C160.163 317.6 160.718 317.122 161.264 316.709C164.201 314.514 169.048 311.972 171.42 308.698C170.695 307.516 170.092 306.034 169.565 305.181C169.208 305.612 158.177 310.631 156.596 312.207Z" fill="#EACB9E"/>
<path d="M87.2683 257.558C88.8118 258.149 89.5648 258.609 90.3177 259.059C92.8778 260.86 93.9319 263.711 94.5343 266.563C96.1908 273.917 100.859 303.643 100.859 303.643C90.6189 307.095 85.4988 292.537 86.7036 286.233L87.2683 257.558Z" fill="#EACB9E"/>
<path d="M171.805 301.392C163.974 288.785 141.677 300.191 134.448 307.995C130.232 312.798 128.425 318.501 124.811 324.204C123.606 321.203 146.816 238.244 148.915 231.125C154.637 211.689 156.425 199.41 141.084 199.391C131.145 199.382 127.371 218.321 120.895 239.539C113.479 263.871 105.977 290.539 103.728 293.747C101.62 296.448 96.8007 299.291 93.4877 296.88C90.4759 294.478 92.9983 278.166 93.2995 272.763C93.9018 267.36 93.8642 259.95 88.1418 257.849C84.2264 256.348 77.751 255.898 74.1368 258.299C69.6191 260.7 67.812 265.503 66.9084 274.283C66.2308 265.728 57.6471 263.524 52.527 264.753C45.6751 266.394 42.2868 270.681 41.3832 282.472C39.1244 273.392 23.9236 274.408 21.5894 284.538C-13.9063 369.469 5.06322 470.437 5.06322 470.437H69.3153C120.895 425.154 126.439 382.08 129.027 372.55C132.943 358.142 143.842 347.533 144.689 343.725C146.891 333.847 153.621 323.482 159.597 318.098C156.237 317.582 153.235 315.546 156.595 312.198C158.176 310.622 169.207 305.603 169.564 305.172C169.564 305.163 169.555 305.144 169.546 305.134C169.583 305.134 169.583 305.144 169.564 305.172C170.092 306.026 170.694 307.508 171.419 308.689C172.934 306.607 173.452 304.206 171.805 301.392Z" fill="#FFE6C0"/>
<path d="M137.762 225.881C136.2 225.374 134.073 224.108 133.367 221.378C132.699 218.817 133.263 206.07 137.461 204.269C138.27 203.922 141.075 204.119 141.979 204.269C143.635 204.419 145.141 205.019 146.647 205.769C148.755 206.82 150.864 207.871 150.412 210.422C150.111 212.673 149.367 215.375 148.605 217.476C145.753 225.402 142.431 227.41 137.762 225.881Z" fill="#EACB9E"/>
<path d="M120.896 350.038C122.101 347.186 122.797 344.241 123.052 341.277C123.174 339.795 123.174 338.313 123.042 336.849C122.986 336.118 122.892 335.386 122.75 334.673C122.694 334.336 122.6 333.904 122.543 333.501C122.487 333.097 122.459 332.685 122.44 332.281C122.28 328.989 123.325 325.921 124.134 323.042C124.925 320.106 125.555 317.067 126.619 314.168C126.195 317.217 125.941 320.265 125.433 323.323C124.849 326.381 124.143 329.317 124.303 332.187C124.35 332.928 124.454 333.566 124.586 334.354C124.727 335.142 124.812 335.94 124.859 336.737C124.934 338.331 124.84 339.926 124.567 341.483C124.021 344.579 122.826 347.599 120.896 350.038Z" fill="#EACB9E"/>
<path d="M44.8868 269.555C44.0115 271.206 43.5973 273.045 43.1456 274.836C42.9385 275.737 42.7503 276.647 42.6185 277.547L42.4302 278.935L42.2702 280.305C42.0914 282.143 41.9879 284.001 41.7808 285.886L41.1596 291.449C40.7549 295.154 40.3596 298.85 39.9926 302.555L38.9478 313.717C38.5149 309.984 38.3925 306.222 38.4961 302.47C38.5902 298.718 38.8819 294.966 39.3055 291.242C39.5408 289.394 39.7478 287.5 40.0678 285.67C40.3408 283.841 40.5667 281.984 40.9243 280.117C41.009 279.648 41.1032 279.189 41.2255 278.72C41.3479 278.26 41.442 277.829 41.5549 277.35C41.7808 276.412 42.0632 275.512 42.3832 274.621C42.7032 273.729 43.042 272.848 43.4467 271.994C43.8514 271.131 44.2938 270.287 44.8868 269.555Z" fill="#EACB9E"/>
<path d="M70.4383 261.611C69.0454 265.279 68.3395 269.078 67.963 272.914L67.4641 278.73C67.2665 280.672 67.0218 282.613 66.7865 284.555C66.2688 288.42 65.7135 292.275 65.1394 296.13C64.5559 299.976 64.0853 303.831 63.3605 307.705C63.3041 303.803 63.37 299.873 63.6805 295.971C63.9629 292.069 64.4429 288.185 64.9229 284.321C65.4594 280.447 65.9206 276.629 66.5135 272.727C67.163 268.834 68.33 264.941 70.4383 261.611Z" fill="#EACB9E"/>
<path d="M24.7906 282.031C25.2048 280.746 26.1271 279.583 27.3413 278.814C28.5554 278.035 30.0143 277.641 31.4543 277.66C32.8943 277.66 34.3249 278.045 35.5485 278.776C36.7532 279.48 37.8544 280.662 38.0427 282.031C37.1297 281.018 36.0473 280.493 34.9179 280.099C33.7885 279.724 32.6026 279.545 31.4355 279.536C30.2684 279.536 29.1107 279.705 28.0001 280.118C26.8989 280.521 25.8636 281.178 24.7906 282.031Z" fill="#EACB9E"/>
<path d="M46.854 272.323C47.447 270.775 48.614 269.387 50.1105 268.477C51.607 267.557 53.3859 267.098 55.1459 267.107C56.906 267.107 58.6566 267.567 60.1719 268.43C61.6684 269.274 63.0331 270.653 63.3531 272.323C62.3084 271.019 60.9531 270.287 59.5413 269.752C58.1201 269.237 56.6236 268.993 55.1365 268.983C53.6494 268.983 52.1717 269.218 50.7788 269.781C49.3858 270.325 48.1058 271.197 46.854 272.323Z" fill="#EACB9E"/>
<path d="M72.0117 265.794C72.727 264.021 74.0447 262.417 75.7577 261.357C77.4612 260.278 79.513 259.734 81.5366 259.753C83.5602 259.762 85.5743 260.297 87.3155 261.301C89.0285 262.286 90.5627 263.88 90.958 265.794C89.8285 264.227 88.285 263.28 86.6567 262.614C85.019 261.957 83.259 261.639 81.5178 261.629C79.7766 261.62 78.0448 261.939 76.4353 262.642C74.8353 263.346 73.3859 264.443 72.0117 265.794Z" fill="#EACB9E"/>
<defs>
<filter id="filter0_f_383_7707" x="172.824" y="15.0086" width="2.05979" height="3.58662" filterUnits="userSpaceOnUse" color-interpolation-filters="sRGB">
<feFlood flood-opacity="0" result="BackgroundImageFix"/>
<feBlend mode="normal" in="SourceGraphic" in2="BackgroundImageFix" result="shape"/>
<feGaussianBlur stdDeviation="0.285944" result="effect1_foregroundBlur_383_7707"/>
</filter>
<filter id="filter1_f_383_7707" x="173.053" y="15.5724" width="1.60178" height="2.45914" filterUnits="userSpaceOnUse" color-interpolation-filters="sRGB">
<feFlood flood-opacity="0" result="BackgroundImageFix"/>
<feBlend mode="normal" in="SourceGraphic" in2="BackgroundImageFix" result="shape"/>
<feGaussianBlur stdDeviation="0.285944" result="effect1_foregroundBlur_383_7707"/>
</filter>
<filter id="filter2_f_383_7707" x="173.402" y="15.5514" width="1.2768" height="2.21164" filterUnits="userSpaceOnUse" color-interpolation-filters="sRGB">
<feFlood flood-opacity="0" result="BackgroundImageFix"/>
<feBlend mode="normal" in="SourceGraphic" in2="BackgroundImageFix" result="shape"/>
<feGaussianBlur stdDeviation="0.190629" result="effect1_foregroundBlur_383_7707"/>
</filter>
<filter id="filter3_f_383_7707" x="174.656" y="15.0086" width="2.05979" height="3.58662" filterUnits="userSpaceOnUse" color-interpolation-filters="sRGB">
<feFlood flood-opacity="0" result="BackgroundImageFix"/>
<feBlend mode="normal" in="SourceGraphic" in2="BackgroundImageFix" result="shape"/>
<feGaussianBlur stdDeviation="0.285944" result="effect1_foregroundBlur_383_7707"/>
</filter>
<filter id="filter4_f_383_7707" x="174.885" y="15.5724" width="1.60178" height="2.45914" filterUnits="userSpaceOnUse" color-interpolation-filters="sRGB">
<feFlood flood-opacity="0" result="BackgroundImageFix"/>
<feBlend mode="normal" in="SourceGraphic" in2="BackgroundImageFix" result="shape"/>
<feGaussianBlur stdDeviation="0.285944" result="effect1_foregroundBlur_383_7707"/>
</filter>
<filter id="filter5_f_383_7707" x="174.861" y="15.5514" width="1.2768" height="2.21164" filterUnits="userSpaceOnUse" color-interpolation-filters="sRGB">
<feFlood flood-opacity="0" result="BackgroundImageFix"/>
<feBlend mode="normal" in="SourceGraphic" in2="BackgroundImageFix" result="shape"/>
<feGaussianBlur stdDeviation="0.190629" result="effect1_foregroundBlur_383_7707"/>
</filter>
<filter id="filter6_f_383_7707" x="104.886" y="158.174" width="80.5048" height="80.5048" filterUnits="userSpaceOnUse" color-interpolation-filters="sRGB">
<feFlood flood-opacity="0" result="BackgroundImageFix"/>
<feBlend mode="normal" in="SourceGraphic" in2="BackgroundImageFix" result="shape"/>
<feGaussianBlur stdDeviation="9.6381" result="effect1_foregroundBlur_383_7707"/>
</filter>
<linearGradient id="paint0_linear_383_7707" x1="146.153" y1="-21.035" x2="210.715" y2="257.954" gradientUnits="userSpaceOnUse">
<stop stop-color="white"/>
<stop offset="1" stop-color="#D4F120"/>
</linearGradient>
</defs>
</svg>
