<svg width="16" height="16" viewBox="0 0 16 16" fill="none" xmlns="http://www.w3.org/2000/svg">
<path d="M15.0514 0.785469C14.5078 0.264153 13.9081 0 13.268 0C12.2671 0 11.5369 0.647151 11.337 0.84539C11.0558 1.12402 1.46469 10.7262 1.46469 10.7262C1.40183 10.7894 1.35645 10.8678 1.33298 10.9539C1.11668 11.7538 0.0332036 15.3032 0.0224449 15.3389C-0.0331729 15.5206 0.0164575 15.7186 0.150427 15.8527C0.24493 15.947 0.372948 16 0.506415 16C0.558057 16 0.610182 15.9923 0.661076 15.9755C0.697749 15.9635 4.35858 14.7794 4.96105 14.5994C5.04054 14.5754 5.11299 14.5323 5.17211 14.474C5.55281 14.0975 14.4983 5.24462 15.0921 4.63092C15.7063 3.9975 16.0114 3.33787 15.9997 2.67074C15.9874 2.01211 15.6684 1.37794 15.0514 0.785469ZM11.1397 2.48076C11.1643 2.45608 11.1988 2.44712 11.2324 2.45629C11.5109 2.53214 12.0719 2.74591 12.644 3.32362C13.2112 3.89629 13.3991 4.54408 13.4505 4.7732C13.4578 4.80564 13.4484 4.83781 13.4248 4.86126C11.4811 6.79602 7.1395 11.0952 5.30563 12.9107C5.25552 12.9603 5.17297 12.9421 5.14293 12.8783C4.97611 12.5241 4.72436 12.1182 4.34567 11.7363C3.88063 11.2674 3.40824 10.9802 3.02101 10.8048C2.95591 10.7753 2.93687 10.6915 2.98737 10.6409C4.8079 8.81866 9.22324 4.39798 11.1397 2.48076ZM2.17758 11.6808C2.19324 11.6291 2.24684 11.5991 2.29842 11.6152C2.59611 11.7083 3.10846 11.9325 3.62968 12.4584C4.03315 12.8655 4.2444 13.3105 4.35145 13.6164C4.36958 13.6682 4.341 13.7239 4.2888 13.7409C3.60596 13.9633 2.30791 14.41 1.38727 14.7106C1.31053 14.7356 1.23768 14.6639 1.26145 14.5868C1.53901 13.6858 1.95306 12.4224 2.17758 11.6808ZM14.3679 3.91733C14.3365 3.94945 14.305 3.98149 14.2734 4.01345C14.1157 3.60697 13.839 3.08467 13.36 2.6013C12.8705 2.10745 12.3741 1.81609 11.9762 1.64381C12.0101 1.61011 12.0363 1.58362 12.0465 1.57365C12.1036 1.51721 12.6218 1.02163 13.2677 1.02163C13.6394 1.02163 14.0044 1.19141 14.3532 1.52597C14.7666 1.9227 14.9796 2.31418 14.9866 2.68994C14.9933 3.07344 14.7853 3.48639 14.3679 3.91733Z" fill="#ADADAD"/>
</svg>
