<svg width="24" height="24" viewBox="0 0 24 24" fill="none" xmlns="http://www.w3.org/2000/svg">
<path d="M8.625 20C7.34033 20 6.24833 19.5503 5.349 18.651C4.44967 17.7517 4 16.6597 4 15.375C4 14.753 4.11933 14.1583 4.358 13.591C4.59667 13.023 4.93133 12.5233 5.362 12.092L12.092 5.362C12.5227 4.93067 13.022 4.596 13.59 4.358C14.1587 4.11933 14.754 4 15.376 4C16.6607 4 17.7527 4.44967 18.652 5.349C19.5513 6.24833 20.0007 7.34033 20 8.625C20 9.247 19.8807 9.842 19.642 10.41C19.404 10.9773 19.0697 11.4767 18.639 11.908L11.908 18.638C11.4773 19.0687 10.978 19.4033 10.41 19.642C9.842 19.8807 9.247 20 8.625 20ZM14.929 14.196L17.95 11.2C18.2833 10.8667 18.5417 10.475 18.725 10.025C18.9083 9.575 19 9.10833 19 8.625C19 7.625 18.6457 6.771 17.937 6.063C17.2283 5.355 16.3743 5.00067 15.375 5C14.8917 5 14.425 5.09167 13.975 5.275C13.525 5.45833 13.1333 5.71667 12.8 6.05L9.804 9.071L14.929 14.196ZM8.625 19C9.10833 19 9.575 18.9083 10.025 18.725C10.475 18.5417 10.8667 18.2833 11.2 17.95L14.196 14.929L9.071 9.804L6.05 12.8C5.71667 13.1333 5.45833 13.525 5.275 13.975C5.09167 14.425 5 14.8917 5 15.375C5 16.375 5.35433 17.2293 6.063 17.938C6.77167 18.6467 7.62567 19.0007 8.625 19Z" fill="black"/>
</svg>
