<svg width="92" height="92" viewBox="0 0 92 92" fill="none" xmlns="http://www.w3.org/2000/svg">
<path d="M62.1335 35.65C62.1335 42.4431 56.6266 47.95 49.8335 47.95V50.95C58.2835 50.95 65.1335 44.1 65.1335 35.65H62.1335ZM49.8335 47.95C43.0404 47.95 37.5335 42.4431 37.5335 35.65H34.5335C34.5335 44.1 41.3835 50.95 49.8335 50.95V47.95ZM37.5335 35.65C37.5335 28.8569 43.0404 23.35 49.8335 23.35V20.35C41.3835 20.35 34.5335 27.2 34.5335 35.65H37.5335ZM49.8335 23.35C56.6266 23.35 62.1335 28.8569 62.1335 35.65H65.1335C65.1335 27.2 58.2835 20.35 49.8335 20.35V23.35ZM39.4835 61.3H60.1835V58.3H39.4835V61.3ZM16.8335 46C16.8335 27.7746 31.6081 13 49.8335 13V10C29.9512 10 13.8335 26.1177 13.8335 46H16.8335ZM49.8335 13C68.0589 13 82.8335 27.7746 82.8335 46H85.8335C85.8335 26.1177 69.7157 10 49.8335 10V13ZM82.8335 46C82.8335 55.3586 78.9398 63.8053 72.6799 69.8127L74.7571 71.9772C81.582 65.4275 85.8335 56.209 85.8335 46H82.8335ZM72.6799 69.8127C66.7491 75.5043 58.7011 79 49.8335 79V82C59.506 82 68.2901 78.1834 74.7571 71.9772L72.6799 69.8127ZM60.1835 61.3C66.1497 61.3 71.1268 65.5494 72.2473 71.1874L75.1897 70.6026C73.7956 63.5879 67.6087 58.3 60.1835 58.3V61.3ZM49.8335 79C40.9659 79 32.9179 75.5043 26.9871 69.8127L24.9099 71.9772C31.3768 78.1834 40.161 82 49.8335 82V79ZM26.9871 69.8127C20.7272 63.8053 16.8335 55.3586 16.8335 46H13.8335C13.8335 56.209 18.0849 65.4275 24.9099 71.9772L26.9871 69.8127ZM39.4835 58.3C32.0582 58.3 25.8714 63.5879 24.4773 70.6026L27.4197 71.1874C28.5402 65.5494 33.5173 61.3 39.4835 61.3V58.3Z" fill="#1B1A1F"/>
</svg>
