<svg width="100" height="100" viewBox="0 0 100 100" fill="none" xmlns="http://www.w3.org/2000/svg">
<path d="M64.1 38.3C64.1 46.0872 57.7872 52.4 50 52.4V55.4C59.4441 55.4 67.1 47.7441 67.1 38.3H64.1ZM50 52.4C42.2128 52.4 35.9 46.0872 35.9 38.3H32.9C32.9 47.7441 40.5559 55.4 50 55.4V52.4ZM35.9 38.3C35.9 30.5128 42.2128 24.2 50 24.2V21.2C40.5559 21.2 32.9 28.8559 32.9 38.3H35.9ZM50 24.2C57.7872 24.2 64.1 30.5128 64.1 38.3H67.1C67.1 28.8559 59.4441 21.2 50 21.2V24.2ZM38.3 67.1H61.7V64.1H38.3V67.1ZM12.5 50C12.5 29.2893 29.2893 12.5 50 12.5V9.5C27.6325 9.5 9.5 27.6325 9.5 50H12.5ZM50 12.5C70.7107 12.5 87.5 29.2893 87.5 50H90.5C90.5 27.6325 72.3675 9.5 50 9.5V12.5ZM87.5 50C87.5 60.6348 83.0751 70.2335 75.9618 77.0599L78.039 79.2244C85.7173 71.8557 90.5 61.4851 90.5 50H87.5ZM75.9618 77.0599C69.2225 83.5275 60.0767 87.5 50 87.5V90.5C60.8816 90.5 70.7635 86.2066 78.039 79.2244L75.9618 77.0599ZM61.7 67.1C68.5396 67.1 74.2447 71.9714 75.5292 78.4345L78.4717 77.8498C76.9136 70.0099 69.9986 64.1 61.7 64.1V67.1ZM50 87.5C39.9233 87.5 30.7775 83.5275 24.0382 77.0599L21.961 79.2244C29.2365 86.2066 39.1184 90.5 50 90.5V87.5ZM24.0382 77.0599C16.9249 70.2335 12.5 60.6348 12.5 50H9.5C9.5 61.4851 14.2827 71.8557 21.961 79.2244L24.0382 77.0599ZM38.3 64.1C30.0014 64.1 23.0864 70.0099 21.5283 77.8498L24.4708 78.4345C25.7553 71.9714 31.4604 67.1 38.3 67.1V64.1Z" fill="#1B1A1F"/>
</svg>
