<svg width="16" height="16" viewBox="0 0 16 16" fill="none" xmlns="http://www.w3.org/2000/svg">
<path fill-rule="evenodd" clip-rule="evenodd" d="M5.62904 2.87873C5.68468 2.65615 5.88468 2.5 6.11411 2.5H9.88589C10.1153 2.5 10.3153 2.65615 10.371 2.87873L10.6929 4.16667H5.30705L5.62904 2.87873ZM4.27628 4.16667L4.6589 2.6362C4.82583 1.96845 5.42581 1.5 6.11411 1.5H9.88589C10.5742 1.5 11.1742 1.96845 11.3411 2.6362L11.7237 4.16667H14C14.2761 4.16667 14.5 4.39052 14.5 4.66667C14.5 4.94281 14.2761 5.16667 14 5.16667H13.1322L12.6314 12.1781C12.538 13.4864 11.4494 14.5 10.1378 14.5H5.86224C4.55064 14.5 3.46204 13.4864 3.36859 12.1781L2.86777 5.16667H2C1.72386 5.16667 1.5 4.94281 1.5 4.66667C1.5 4.39052 1.72386 4.16667 2 4.16667H4.27628ZM3.87032 5.16667H12.1297L11.6339 12.1069C11.5779 12.8918 10.9247 13.5 10.1378 13.5H5.86224C5.07528 13.5 4.42212 12.8918 4.36605 12.1069L3.87032 5.16667Z" fill="#ADADAD"/>
</svg>
