<svg width="24" height="22" viewBox="0 0 24 22" fill="none" xmlns="http://www.w3.org/2000/svg">
<path id="Vector" d="M8.53498 4.80803V20.8175M15.465 0.60498V16.775M1.60498 7.20003C1.60498 5.49756 1.60498 4.64748 2.0589 4.15083C2.21954 3.97415 2.41498 3.83259 2.63293 3.73503C3.24739 3.46245 4.05474 3.73157 5.66943 4.2698C6.90181 4.68098 7.51743 4.88657 8.14113 4.86462C8.36993 4.8571 8.59742 4.82692 8.82026 4.77453C9.42664 4.63016 9.96718 4.2698 11.0483 3.55023L12.6445 2.48532C14.0305 1.56132 14.7223 1.09932 15.517 0.994215C16.3116 0.8868 17.1016 1.15014 18.6805 1.67682L20.0261 2.12496C21.1695 2.50611 21.7412 2.69669 22.0681 3.1506C22.395 3.60452 22.395 4.20743 22.395 5.41209V14.8011C22.395 16.5024 22.395 17.3536 21.9411 17.8503C21.7802 18.0261 21.5848 18.1669 21.367 18.2638C20.7526 18.5375 19.9452 18.2684 18.3305 17.7302C17.0982 17.319 16.4825 17.1134 15.8588 17.1353C15.63 17.1429 15.4025 17.173 15.1797 17.2254C14.5733 17.3698 14.0328 17.7302 12.9517 18.4497L11.3555 19.5146C9.96949 20.4386 9.27765 20.9006 8.48301 21.0057C7.68837 21.1132 6.89835 20.8498 5.31946 20.3231L3.97389 19.875C2.83044 19.4939 2.25871 19.3033 1.93185 18.8494C1.60498 18.3954 1.60498 17.7914 1.60498 16.5879V7.20003Z" stroke="black" stroke-width="1.5"/>
</svg>
